<svg width="24" height="24" viewBox="0 0 24 24" fill="none" xmlns="http://www.w3.org/2000/svg">
<g id="icon_user_disconnect">
<mask id="mask0_1104_6258" style="mask-type:alpha" maskUnits="userSpaceOnUse" x="0" y="0" width="24" height="24">
<rect id="Rectangle 209" width="24" height="24" fill="#D9D9D9"/>
</mask>
<g mask="url(#mask0_1104_6258)">
<g id="Group 142">
<path id="Vector" d="M10.649 14.1588C10.55 14.2567 10.4824 14.382 10.4548 14.5185C10.4273 14.655 10.441 14.7967 10.4943 14.9254C10.5476 15.0541 10.638 15.164 10.7541 15.241C10.8701 15.3181 11.0065 15.3588 11.1458 15.3581C11.3322 15.3583 11.5111 15.2845 11.6433 15.153L14.296 12.5003C14.4283 12.3675 14.5026 12.1877 14.5026 12.0003C14.5026 11.8128 14.4283 11.633 14.296 11.5002L11.6433 8.85002C11.5781 8.78458 11.5006 8.73265 11.4153 8.69722C11.33 8.66179 11.2385 8.64355 11.1462 8.64355C11.0538 8.64355 10.9623 8.66179 10.877 8.69722C10.7917 8.73265 10.7142 8.78458 10.649 8.85002C10.5837 8.9152 10.5319 8.99262 10.4966 9.07785C10.4612 9.16308 10.443 9.25445 10.443 9.34672C10.443 9.439 10.4612 9.53037 10.4966 9.6156C10.5319 9.70083 10.5837 9.77825 10.649 9.84343L12.1008 11.2952L2.70339 11.2969C2.61099 11.2968 2.51947 11.3149 2.43409 11.3502C2.3487 11.3855 2.27111 11.4373 2.20577 11.5027C2.14044 11.568 2.08863 11.6456 2.05332 11.731C2.01801 11.8164 1.99989 11.9079 2 12.0003C2 12.3886 2.31669 12.7053 2.70339 12.7053L12.1008 12.707L10.649 14.1588Z" 
fill="currentColor" stroke="#999999" stroke-width="0.5"/>
<path id="Vector_2" d="M21.2165 8.10968C20.715 6.9213 19.9876 5.84153 19.0747 4.93025C18.1472 3.99994 17.045 3.26214 15.8315 2.75927C14.6179 2.25639 13.3169 1.99836 12.0033 2.00001C10.4156 2.00001 8.89549 2.3617 7.48704 3.0751C6.13765 3.76215 4.9608 4.74499 4.04426 5.95034C3.80841 6.25869 3.86924 6.7004 4.1776 6.93375C4.48596 7.17044 4.92767 7.1096 5.16102 6.80041C5.95066 5.76473 6.96363 4.9204 8.1246 4.3302C9.32592 3.71905 10.6554 3.40253 12.0033 3.40679C13.132 3.40431 14.2501 3.62536 15.293 4.0572C16.3359 4.48903 17.283 5.12311 18.0796 5.92283C18.8784 6.72054 19.512 7.66802 19.944 8.71099C20.376 9.75396 20.598 10.8719 20.5973 12.0008C20.5998 13.1296 20.3787 14.2477 19.9469 15.2906C19.5151 16.3335 18.881 17.2806 18.0813 18.0772C17.2836 18.876 16.3361 19.5096 15.2931 19.9416C14.2501 20.3736 13.1322 20.5956 12.0033 20.5949C10.6381 20.5949 9.33303 20.2849 8.1196 19.6698C6.9592 19.0787 5.94662 18.2342 5.15685 17.1988C5.04178 17.0568 4.87594 16.9653 4.69452 16.9437C4.51309 16.922 4.33036 16.9718 4.18508 17.0826C4.0398 17.1934 3.9434 17.3565 3.91633 17.5372C3.88926 17.7179 3.93366 17.902 4.04009 18.0505C4.95851 19.2557 6.13667 20.2384 7.48704 20.9257C8.89549 21.6383 10.4156 22 12.0033 22C13.3534 22 14.6635 21.7358 15.8961 21.2141C17.0841 20.7128 18.1634 19.9854 19.0738 19.0723C20.0041 18.1448 20.7419 17.0426 21.2448 15.829C21.7477 14.6155 22.0057 13.3145 22.0041 12.0008C22.0041 10.6507 21.7407 9.34062 21.2165 8.10968Z" 
fill="currentColor" stroke="#999999" stroke-width="0.5"/>
</g>
</g>
</g>
</svg>
