<svg width="28" height="28" viewBox="0 0 28 28" fill="none" xmlns="http://www.w3.org/2000/svg">
<g id="icon_user_myprofile">
<mask id="mask0_1104_6219" style="mask-type:alpha" maskUnits="userSpaceOnUse" x="0" y="0" width="28" height="28">
<rect id="Rectangle 208" width="28" height="28" fill="#D9D9D9"/>
</mask>
<g mask="url(#mask0_1104_6219)">
<g id="Group 141">
<path id="Vector" d="M22.0232 21.3947L22.0221 21.3959C20.0169 23.5682 17.167 24.9154 13.9948 24.9154C10.8226 24.9154 7.97268 23.5682 5.96746 21.3959L5.96634 21.3947C4.16973 19.4569 3.07812 16.8514 3.07812 13.9987C3.07812 7.97566 7.97175 3.08203 13.9948 3.08203C20.0178 3.08203 24.9115 7.97566 24.9115 13.9987C24.9115 16.8514 23.8199 19.4569 22.0232 21.3947Z" stroke="white" stroke-width="1.5" stroke-miterlimit="10"/>
<path id="Vector_2" d="M13.9997 14.686C15.8948 14.686 17.4311 13.1497 17.4311 11.2546C17.4311 9.35952 15.8948 7.82324 13.9997 7.82324C12.1046 7.82324 10.5684 9.35952 10.5684 11.2546C10.5684 13.1497 12.1046 14.686 13.9997 14.686Z" stroke="white" stroke-width="1.5" stroke-miterlimit="10"/>
<path id="Vector_3" d="M21.6692 21.7579C19.689 23.7164 16.984 24.9145 13.9925 24.9145C11.0009 24.9145 8.29596 23.7164 6.3158 21.7579C7.42755 19.7517 10.3445 18.1792 13.9925 18.1792C17.6405 18.1792 20.5574 19.7517 21.6692 21.7579Z" stroke="white" stroke-width="1.5" stroke-miterlimit="10"/>
</g>
</g>
</g>
</svg>
