<svg width="20" height="20" viewBox="0 0 20 20" fill="none" xmlns="http://www.w3.org/2000/svg">
<g id="icon_usersnft_owner">
<mask id="mask0_1443_10522" style="mask-type:alpha" maskUnits="userSpaceOnUse" x="0" y="0" width="20" height="20">
<rect id="Rectangle 645" width="20" height="20" fill="#D9D9D9"/>
</mask>
<g mask="url(#mask0_1443_10522)">
<g id="Group">
<g id="Group_2">
<path id="Vector" d="M13.0432 8.83798C12.0789 8.83798 11.1769 8.36366 10.6287 7.57146L10.4941 7.37775L10.6137 7.17412C10.848 6.77429 10.9726 6.31735 10.9726 5.85296C10.9726 5.40595 10.8629 4.98378 10.6511 4.59885L10.5365 4.39025L10.676 4.19903C11.2242 3.44656 12.1088 2.99707 13.0432 2.99707C14.6579 2.99707 15.971 4.3083 15.971 5.91753C15.971 7.52676 14.6579 8.83798 13.0432 8.83798ZM11.3812 7.3256C11.7948 7.80986 12.4003 8.09297 13.0432 8.09297C14.2467 8.09297 15.2235 7.117 15.2235 5.91753C15.2235 4.71805 14.2467 3.74208 13.0432 3.74208C12.4228 3.74208 11.8297 4.00781 11.4186 4.46475C11.6179 4.89934 11.7201 5.36373 11.7201 5.85296C11.7201 6.36454 11.603 6.86866 11.3812 7.3256Z" fill="#999999"/>
</g>
<g id="Group_3">
<path id="Vector_2" d="M16.4083 15.5371H13.2163V15.1646C13.2163 13.1059 11.9131 11.2359 9.96958 10.5132L9.32422 10.2724L9.87988 9.86508C10.6698 9.28397 11.6092 8.97852 12.5934 8.97852H13.2811C15.8227 8.97852 17.8909 11.0397 17.8909 13.5728V14.062C17.8909 14.8741 17.2256 15.5371 16.4083 15.5371ZM13.9514 14.7921H16.4083C16.8144 14.7921 17.1433 14.4643 17.1433 14.0595V13.5703C17.1433 11.447 15.4116 9.72105 13.2811 9.72105H12.5934C11.9979 9.72105 11.4223 9.85515 10.899 10.1134C12.6482 11.0348 13.8193 12.8153 13.9514 14.7921Z" fill="#999999"/>
</g>
<g id="Group_4">
<path id="Vector_3" d="M8.3541 9.20513C6.50024 9.20513 4.99023 7.7002 4.99023 5.85257C4.99023 4.00493 6.50024 2.5 8.3541 2.5C9.58004 2.5 10.7113 3.16555 11.3018 4.23837C11.5784 4.73504 11.718 5.2789 11.718 5.85257C11.718 6.44858 11.5585 7.03465 11.2595 7.54871C10.6565 8.56938 9.54515 9.20513 8.3541 9.20513ZM8.3541 3.24501C6.91137 3.24501 5.73776 4.41469 5.73776 5.85257C5.73776 7.29044 6.91137 8.46012 8.3541 8.46012C9.28103 8.46012 10.1457 7.96592 10.6141 7.17124C10.8458 6.7739 10.9704 6.31696 10.9704 5.85257C10.9704 5.40556 10.8608 4.98338 10.649 4.59846C10.188 3.76404 9.30844 3.24501 8.3541 3.24501Z" fill="#999999"/>
</g>
<g id="Group_5">
<path id="Vector_4" d="M12.1879 16.9331H4.27413C3.29487 16.9331 2.5 16.1409 2.5 15.1649V14.9166C2.5 11.9042 4.95936 9.45312 7.98185 9.45312H8.23103C8.91875 9.45312 9.59152 9.57481 10.2319 9.8157C12.462 10.6451 13.9621 12.7958 13.9621 15.1649C13.9621 15.6367 13.7777 16.0788 13.4413 16.414C13.1049 16.7493 12.6614 16.9331 12.1879 16.9331ZM7.98185 10.1981C5.3705 10.1981 3.24753 12.314 3.24753 14.9166V15.1649C3.24753 15.7286 3.7085 16.1881 4.27413 16.1881H12.1879C12.462 16.1881 12.7187 16.0813 12.913 15.8876C13.1074 15.6939 13.2145 15.4381 13.2145 15.1649C13.2145 13.1062 11.9113 11.2362 9.96778 10.5135C9.41212 10.3049 8.82905 10.1981 8.23103 10.1981H7.98185Z" fill="#999999"/>
</g>
<g id="Group_6">
<path id="Vector_5" d="M8.22667 15.5372H8.22418C8.11455 15.5372 8.00989 15.49 7.92766 15.408L7.1004 14.5662C6.98578 14.4569 6.93346 14.2756 6.96336 14.0968L7.39941 11.7426C7.43679 11.534 7.59875 11.3874 7.79311 11.3874H8.67519C8.86705 11.3874 9.034 11.5389 9.06889 11.745L9.49248 14.1142C9.52238 14.2905 9.47006 14.4693 9.35295 14.5885L8.51821 15.4105C8.43847 15.4925 8.33382 15.5372 8.22667 15.5372ZM7.88032 11.8866L7.45423 14.1862C7.45174 14.2036 7.45423 14.221 7.45672 14.2259L8.22667 15.0057L9.0041 14.2384C9.0041 14.2384 9.00908 14.221 9.0041 14.2036L8.59047 11.8866H7.88032ZM8.69014 11.1366H7.78065C7.60872 11.1366 7.45672 11.0174 7.39941 10.8386L7.17017 10.111C7.1303 9.98433 7.14276 9.84278 7.20506 9.73103C7.2823 9.59196 7.41187 9.51249 7.55889 9.51249H8.90443C9.04646 9.50256 9.17603 9.58947 9.25328 9.72606C9.31557 9.83781 9.32803 9.97688 9.29314 10.1035L9.07636 10.8312C9.01905 11.0149 8.86456 11.1366 8.69014 11.1366ZM7.8579 10.6399H8.6104L8.79729 10.0116H7.65606L7.8579 10.6399ZM7.55141 10.0116C7.5539 10.0116 7.5539 10.0116 7.55639 10.0116H7.55141Z" fill="#999999"/>
</g>
</g>
</g>
</g>
</svg>
