<svg width="24" height="24" viewBox="0 0 24 24" fill="none" xmlns="http://www.w3.org/2000/svg">
<g id="icon_connectwallet_faq">
<mask id="mask0_1089_3197" style="mask-type:alpha" maskUnits="userSpaceOnUse" x="0" y="0" width="24" height="24">
<rect id="Rectangle 221" width="24" height="24" fill="#D9D9D9"/>
</mask>
<g mask="url(#mask0_1089_3197)">
</g>
<g id="-s-iconUser_wenzhang" clip-path="url(#clip0_1089_3197)">
<path id="iconUser_wenzhang" fill-rule="evenodd" clip-rule="evenodd" d="M18.9854 9.78564C18.9832 9.77157 18.9812 9.75753 18.9794 9.74354C18.9728 9.69542 18.9664 9.64793 18.9482 9.60168C18.9318 9.55615 18.9055 9.51709 18.8791 9.47793L18.8791 9.47792C18.8712 9.46606 18.8632 9.4542 18.8555 9.44214C18.8463 9.42801 18.8391 9.41305 18.8319 9.39813C18.8214 9.37657 18.8111 9.35511 18.7949 9.33643L14.3252 5.28381C14.3238 5.28152 14.3212 5.27999 14.3188 5.2785C14.3161 5.2769 14.3135 5.27535 14.3125 5.27295C14.2768 5.23413 14.2333 5.20589 14.1894 5.17739L14.1894 5.17739C14.1793 5.17085 14.1692 5.16429 14.1592 5.15759C14.1455 5.14859 14.1325 5.13838 14.1196 5.12822L14.1196 5.12821C14.0984 5.11152 14.0774 5.09496 14.0537 5.08411C14.0283 5.07266 14.001 5.06758 13.9737 5.06251C13.9579 5.05958 13.9421 5.05665 13.9268 5.05249C13.9147 5.0493 13.9027 5.04593 13.8907 5.04256L13.8906 5.04255C13.8424 5.029 13.7942 5.01548 13.7441 5.0144C13.7408 5.01434 13.7381 5.01345 13.7355 5.01256C13.7327 5.01165 13.73 5.01074 13.7266 5.01074H6.82031C6.37305 5.01074 6.00781 5.38782 6.00781 5.85291V18.1686C6.00781 18.634 6.37305 19.0106 6.82031 19.0106H18.1953C18.6455 19.0106 19.0078 18.634 19.0078 18.1686V9.90552C19.0078 9.87981 19.0017 9.85624 18.9956 9.8326L18.9956 9.83259L18.9956 9.83258L18.9956 9.83256C18.9916 9.81716 18.9877 9.80173 18.9854 9.78564ZM14.0039 7.03845L16.8379 8.98999H14.0039V7.03845ZM6.98535 18.0112H17.9746V10.0167H13.7812C13.333 10.0167 12.9678 9.63953 12.9678 9.17456V6.01013H6.98535V18.0112ZM8.80371 12.9917H10.3115C10.7607 12.9917 11.0166 12.9509 11.0166 12.4858C11.0166 12.0221 10.7622 12.0221 10.3154 12.0221H10.3115H8.80371H8.79984C8.35241 12.0221 7.99121 12.0221 7.99121 12.4858C7.99121 12.9509 8.35449 12.9917 8.80371 12.9917ZM8.54883 14.9899C8.27269 14.9899 8.04883 15.2137 8.04883 15.4899C8.04883 15.766 8.27269 15.9899 8.54883 15.9899H13.6388C13.915 15.9899 14.1388 15.766 14.1388 15.4899C14.1388 15.2137 13.915 14.9899 13.6388 14.9899H8.54883Z" fill="#666666"/>
</g>
</g>
<defs>
<clipPath id="clip0_1089_3197">
<rect width="13" height="13.9999" fill="white" transform="translate(6 5)"/>
</clipPath>
</defs>
</svg>
