<svg width="20" height="20" viewBox="0 0 20 20" fill="none" xmlns="http://www.w3.org/2000/svg">
<g id="icon_usersnft_items">
<mask id="mask0_1443_10523" style="mask-type:alpha" maskUnits="userSpaceOnUse" x="0" y="0" width="20" height="20">
<rect id="Rectangle 646" width="20" height="20" fill="#D9D9D9"/>
</mask>
<g mask="url(#mask0_1443_10523)">
<g id="Group">
<g id="Group_2">
<path id="Vector" d="M3.24267 5.78639H2.5V5.66796C2.5 4.79703 3.20059 4.07412 4.12892 3.99023L4.20071 4.72794C3.65609 4.78222 3.24267 5.23866 3.24267 5.78639Z" fill="#999999"/>
</g>
<g id="Group_3">
<path id="Vector_2" d="M15.6187 5.78691H14.876C14.876 5.23918 14.4626 4.78274 13.918 4.72599L13.9898 3.98828C14.9181 4.07464 15.6187 4.79507 15.6187 5.66601V5.78691Z" fill="#999999"/>
</g>
<g id="Group_4">
<path id="Vector_3" d="M13.8084 16.9329H4.31211C3.31199 16.9329 2.5 16.1754 2.5 15.2453V7.68066H15.6205V15.2453C15.6205 16.1754 14.8085 16.9329 13.8084 16.9329ZM3.24267 8.42084V15.2453C3.24267 15.7683 3.72293 16.1927 4.31211 16.1927H13.8084C14.3976 16.1927 14.8778 15.7683 14.8778 15.2453V8.42084H3.24267Z" fill="#999999"/>
</g>
<g id="Group_5">
<path id="Vector_4" d="M16.0369 15.4531H14.8783V5.78638C14.8783 5.23865 14.4649 4.78221 13.9203 4.72546C13.8832 4.72053 13.846 4.72053 13.8089 4.72053H4.72852V4.1876C4.72852 3.25745 5.5405 2.5 6.54063 2.5H16.0369C17.037 2.5 17.849 3.25745 17.849 4.1876V13.7655C17.849 14.6956 17.037 15.4531 16.0369 15.4531ZM15.621 14.7129H16.0369C16.6261 14.7129 17.1063 14.2885 17.1063 13.7655V4.1876C17.1063 3.66454 16.6261 3.24018 16.0369 3.24018H6.54063C6.03066 3.24018 5.60487 3.55845 5.49594 3.98035H13.8089C13.8708 3.98035 13.9327 3.98282 13.9946 3.99022C14.9204 4.08397 15.621 4.85622 15.621 5.78638V14.7129Z" fill="#999999"/>
</g>
<g id="Group_6">
<path id="Vector_5" d="M15.6205 8.42152H2.5V5.7865C2.5 4.85634 3.19811 4.08409 4.12645 3.99034C4.18833 3.98294 4.25022 3.98047 4.31211 3.98047H13.8084C13.8703 3.98047 13.9322 3.98294 13.994 3.99034C14.9199 4.08409 15.6205 4.85634 15.6205 5.7865V8.42152ZM3.24267 7.68134H14.8778V5.7865C14.8778 5.23877 14.4644 4.78233 13.9198 4.72558C13.8826 4.72064 13.8455 4.72064 13.8084 4.72064H4.31211C4.27498 4.72064 4.23785 4.72311 4.20071 4.72558C3.65361 4.78233 3.24267 5.2363 3.24267 5.7865V7.68134Z" fill="#999999"/>
</g>
<g id="Group_7">
<path id="Vector_6" d="M11.6591 6.44818H4.60376C4.39828 6.44818 4.23242 6.28288 4.23242 6.0781C4.23242 5.87331 4.39828 5.70801 4.60376 5.70801H11.6591C11.8646 5.70801 12.0304 5.87331 12.0304 6.0781C12.0304 6.28288 11.8646 6.44818 11.6591 6.44818Z" fill="#999999"/>
</g>
<g id="Group_8">
<path id="Vector_7" d="M13.0198 6.44818C13.2249 6.44818 13.3911 6.28249 13.3911 6.0781C13.3911 5.8737 13.2249 5.70801 13.0198 5.70801C12.8147 5.70801 12.6484 5.8737 12.6484 6.0781C12.6484 6.28249 12.8147 6.44818 13.0198 6.44818Z" fill="#999999"/>
</g>
</g>
</g>
</g>
</svg>
