<svg width="32" height="32" viewBox="0 0 32 32" fill="none" xmlns="http://www.w3.org/2000/svg">
<g id="Frame 1584" clip-path="url(#clip0_1431_18509)">
<g id="icon_discord">
<g id="Frame">
<path id="Vector" d="M26.2636 5.9549C26.2551 5.93844 26.241 5.92555 26.2239 5.91852C24.2423 5.00938 22.1513 4.36109 20.003 3.98987C19.9835 3.98624 19.9633 3.98886 19.9453 3.99735C19.9274 4.00584 19.9126 4.01978 19.903 4.03717C19.6183 4.55397 19.3598 5.08481 19.1286 5.62766C16.8128 5.27613 14.4573 5.27613 12.1415 5.62766C11.9088 5.08343 11.6462 4.55246 11.3549 4.03717C11.3449 4.02015 11.33 4.00654 11.3122 3.99811C11.2943 3.98967 11.2744 3.9868 11.2549 3.98987C9.10635 4.36031 7.01514 5.00865 5.03388 5.91857C5.01692 5.92576 5.00261 5.93804 4.99292 5.95371C1.03079 11.8706 -0.054591 17.6421 0.477859 23.3421C0.479357 23.356 0.483649 23.3696 0.490479 23.3818C0.49731 23.3941 0.50654 23.4049 0.517621 23.4135C2.82474 25.1218 5.40527 26.4257 8.14911 27.2696C8.16843 27.2754 8.18906 27.2752 8.20823 27.2689C8.2274 27.2626 8.24419 27.2506 8.25633 27.2345C8.84565 26.4326 9.36783 25.5835 9.81756 24.6958C9.82374 24.6837 9.82727 24.6703 9.82791 24.6567C9.82856 24.643 9.8263 24.6294 9.8213 24.6167C9.81629 24.604 9.80865 24.5925 9.79888 24.5829C9.78911 24.5734 9.77742 24.566 9.7646 24.5613C8.94116 24.2463 8.14397 23.8665 7.38053 23.4255C7.36666 23.4173 7.35501 23.4059 7.34661 23.3922C7.33821 23.3784 7.33332 23.3629 7.33237 23.3468C7.33142 23.3307 7.33444 23.3147 7.34116 23.3001C7.34788 23.2855 7.3581 23.2727 7.37091 23.263C7.53156 23.143 7.68942 23.0193 7.84437 22.892C7.85796 22.8809 7.8744 22.8737 7.89185 22.8713C7.9093 22.869 7.92706 22.8715 7.94312 22.8787C12.9448 25.1614 18.3598 25.1614 23.3023 22.8787C23.3184 22.8711 23.3363 22.8682 23.354 22.8703C23.3717 22.8724 23.3884 22.8796 23.4023 22.8909C23.5574 23.0188 23.7156 23.1429 23.8769 23.263C23.8898 23.2726 23.9001 23.2853 23.9069 23.2999C23.9137 23.3144 23.9169 23.3304 23.916 23.3465C23.9152 23.3626 23.9104 23.3782 23.9021 23.3919C23.8939 23.4057 23.8823 23.4172 23.8685 23.4255C23.1068 23.8702 22.3089 24.2497 21.4833 24.5601C21.4705 24.565 21.4588 24.5725 21.4491 24.5822C21.4394 24.5919 21.4318 24.6036 21.4269 24.6164C21.422 24.6292 21.4199 24.6429 21.4206 24.6566C21.4214 24.6703 21.425 24.6837 21.4313 24.6958C21.8886 25.5786 22.41 26.4266 22.9913 27.2331C23.0031 27.2496 23.0198 27.2621 23.0391 27.2686C23.0583 27.2751 23.0791 27.2754 23.0986 27.2695C25.8473 26.4284 28.4324 25.1244 30.7424 23.4135C30.7536 23.4053 30.763 23.3948 30.7698 23.3827C30.7767 23.3706 30.7809 23.3571 30.7821 23.3433C31.4196 16.7535 29.7149 11.0293 26.2636 5.9549ZM10.5645 19.8714C9.05865 19.8714 7.81786 18.4895 7.81786 16.7923C7.81786 15.0952 9.03458 13.7132 10.5645 13.7132C12.1064 13.7132 13.3352 15.1072 13.3111 16.7922C13.3111 18.4895 12.0943 19.8714 10.5645 19.8714ZM20.7197 19.8714C19.2139 19.8714 17.9731 18.4895 17.9731 16.7923C17.9731 15.0952 19.1898 13.7132 20.7197 13.7132C22.2617 13.7132 23.4905 15.1072 23.4664 16.7922C23.4664 18.4895 22.2617 19.8714 20.7197 19.8714Z" fill="white"/>
</g>
</g>
</g>
<defs>
<clipPath id="clip0_1431_18509">
<rect width="32" height="32" fill="white"/>
</clipPath>
</defs>
</svg>
