<svg width="34" height="34" viewBox="0 0 34 34" fill="none" xmlns="http://www.w3.org/2000/svg">
<g id="icon_link3">
<mask id="mask0_1431_18517" style="mask-type:alpha" maskUnits="userSpaceOnUse" x="0" y="0" width="34" height="34">
<rect id="Rectangle 190" width="33.2651" height="33.2651" fill="#87CD00"/>
</mask>
<g mask="url(#mask0_1431_18517)">
<path id="Vector" d="M28.2817 8.14901L30.4944 6.01118V5.54297H22.8314L17.3702 19.2773L11.1583 5.54297H3.12356V6.01118L5.70796 9.1544C5.96062 9.3867 6.09056 9.72788 6.05808 10.0691V22.4205C6.13749 22.867 5.99672 23.3207 5.6863 23.6437L2.77344 27.2116V27.6725H11.0247V27.2043L8.11549 23.6473C7.80147 23.3243 7.64987 22.8742 7.71484 22.4242V11.7387L14.9591 27.6798H15.8001L22.0301 11.7387V24.4386C22.0301 24.7725 22.0301 24.8415 21.8135 25.0629L19.572 27.2515V27.7197H30.4438V27.2515L28.2817 25.1137C28.0941 24.9685 27.9966 24.7253 28.0363 24.4894V8.7733C27.9966 8.53737 28.0941 8.29419 28.2817 8.14901Z" fill="white"/>
</g>
</g>
</svg>
