<svg width="140" height="36" viewBox="0 0 140 36" fill="none" xmlns="http://www.w3.org/2000/svg">
<g id="simsports-logo-text">
<mask id="mask0_1124_6538" style="mask-type:alpha" maskUnits="userSpaceOnUse" x="0" y="0" width="140" height="36">
<rect id="Rectangle 599" width="140" height="36" fill="#D9D9D9"/>
</mask>
<g mask="url(#mask0_1124_6538)">
<g id="Group">
<g id="Group_2">
<g id="Group_3">
<path id="Vector" d="M135.423 24.9784H124.256V21.6249H135.423C136.099 21.6249 136.651 21.0734 136.651 20.3948C136.651 19.7174 136.1 19.1647 135.423 19.1647H128.053C125.528 19.1647 123.475 17.1092 123.475 14.5823C123.475 12.0555 125.528 10 128.053 10H139.443V13.3535H128.053C127.376 13.3535 126.824 13.905 126.824 14.5836C126.824 15.2609 127.375 15.8137 128.053 15.8137H135.423C137.947 15.8137 140.001 17.8692 140.001 20.396C140.001 22.9228 137.947 24.9784 135.423 24.9784Z" 
fill="currentColor"/>
</g>
</g>
<g id="Group_4">
<path id="Vector_2" d="M11.9479 25.0155H0.781489V21.662H11.9479C12.6246 21.662 13.1768 21.1105 13.1768 20.4319C13.1768 19.7545 12.6259 19.2018 11.9479 19.2018H4.578C2.05357 19.2018 0 17.1463 0 14.6195C0 12.0926 2.05357 10.0371 4.578 10.0371H15.9688V13.3906H4.578C3.90128 13.3906 3.34906 13.9421 3.34906 14.6207C3.34906 15.2993 3.90005 15.8508 4.578 15.8508H11.9479C14.4723 15.8508 16.5259 17.9063 16.5259 20.4331C16.5259 22.96 14.4723 25.0155 11.9479 25.0155Z" 
fill="currentColor"/>
</g>
<g id="Group_5">
<g id="Group_6">
<path id="Vector_3" d="M56.3444 24.9784H45.178V21.6249H56.3444C57.0211 21.6249 57.5733 21.0734 57.5733 20.3948C57.5733 19.7174 57.0223 19.1647 56.3444 19.1647H48.9745C46.45 19.1647 44.3965 17.1092 44.3965 14.5823C44.3965 12.0555 46.45 10 48.9745 10H60.3652V13.3535H48.9745C48.2978 13.3535 47.7455 13.905 47.7455 14.5836C47.7455 15.2609 48.2965 15.8137 48.9745 15.8137H56.3444C58.8688 15.8137 60.9224 17.8692 60.9224 20.396C60.9224 22.9228 58.8688 24.9784 56.3444 24.9784Z" 
fill="currentColor"/>
</g>
</g>
<g id="Group_7">
<path id="Vector_4" d="M22.2224 10.0371H18.8721V25.0155H22.2224V10.0371Z" 
fill="currentColor"/>
</g>
<path id="Vector_5" d="M122.468 16.7057V13.3535H113.534V10.0012H110.185V22.3553C110.185 23.805 111.358 24.9796 112.806 24.9796H122.468V21.6273H114.189C113.827 21.6273 113.534 21.3337 113.534 20.971V16.7057H122.468Z" 
fill="currentColor"/>
<g id="Group_8">
<g id="Group_9">
<path id="Vector_6" d="M107.726 24.9786H104.377L100.804 17.155H104.153L107.726 24.9786Z" 
fill="currentColor"/>
</g>
</g>
<g id="Group_10">
<g id="Group_11">
<path id="Vector_7" d="M62.6133 10.0012V24.9796H65.9636V19.8383H71.5474C74.2604 19.8383 76.4607 17.636 76.4607 14.9204C76.4607 12.2048 74.2604 10.0025 71.5474 10.0025H62.6133V10.0012ZM71.5474 16.4836H65.9636V13.3547H71.5474C72.4102 13.3547 73.1104 14.0555 73.1104 14.9192C73.1104 15.7828 72.4102 16.4836 71.5474 16.4836Z" 
fill="currentColor"/>
</g>
</g>
<g id="Group_12">
<g id="Group_13">
<path id="Vector_8" d="M93.8818 10.0012V24.9796H97.2321V19.8383H102.816C105.529 19.8383 107.729 17.636 107.729 14.9204C107.729 12.2048 105.529 10.0025 102.816 10.0025H93.8818V10.0012ZM102.815 16.4836H97.2309V13.3547H102.815C103.678 13.3547 104.378 14.0555 104.378 14.9192C104.379 15.7828 103.679 16.4836 102.815 16.4836Z" 
fill="currentColor"/>
</g>
</g>
<g id="Group_14">
<path id="Vector_9" d="M29.1452 10.0371H25.7949V25.0155H29.1452V10.0371Z" 
fill="currentColor"/>
</g>
<g id="Group_15">
<path id="Vector_10" d="M42.4343 10.0371H39.084V25.0155H42.4343V10.0371Z" 
fill="currentColor"/>
</g>
<g id="Group_16">
<path id="Vector_11" d="M34.114 18.364C29.5261 18.364 25.7949 14.6281 25.7949 10.0371H29.1452C29.1452 12.7799 31.3751 15.0106 34.114 15.0106C36.8541 15.0106 39.0827 12.7786 39.0827 10.0371H42.433C42.433 14.6293 38.7006 18.364 34.114 18.364Z" 
fill="currentColor"/>
</g>
<g id="Group_17">
<g id="Group_18">
<path id="Vector_12" d="M87.5761 15.1192C88.0926 15.6361 88.5856 16.1864 89.038 16.7515C90.4765 14.6898 90.9325 12.9464 90.3397 12.353C89.7468 11.7595 88.005 12.2173 85.9453 13.6559C86.5099 14.1087 87.0609 14.6022 87.5761 15.1192Z" 
fill="currentColor"/>
</g>
<g id="Group_19">
<path id="Vector_13" d="M82.8387 19.8606C82.3222 19.3436 81.8292 18.7934 81.3768 18.2283C79.9383 20.29 79.4822 22.0333 80.0751 22.6268C80.668 23.2202 82.4097 22.7625 84.4695 21.3239C83.9049 20.8711 83.3539 20.3776 82.8387 19.8606Z" 
fill="currentColor"/>
</g>
<g id="Group_20">
<path id="Vector_14" d="M89.5996 17.4905C90.6412 18.9353 91.3672 20.4109 91.472 21.5867C93.0941 19.1068 93.0941 15.8755 91.472 13.3955C91.3672 14.5701 90.6412 16.0445 89.5996 17.4905Z" 
fill="currentColor"/>
</g>
<g id="Group_21">
<path id="Vector_15" d="M90.3397 22.6268C90.9325 22.0333 90.4752 20.29 89.038 18.2283C88.5856 18.7934 88.0926 19.3436 87.5761 19.8606C87.0596 20.3776 86.5099 20.8711 85.9453 21.3239C88.0063 22.7637 89.7468 23.2215 90.3397 22.6268Z" 
fill="currentColor"/>
</g>
<g id="Group_22">
<path id="Vector_16" d="M86.9451 19.2289C87.5293 18.6441 88.0446 18.0592 88.4908 17.4905C88.0446 16.9217 87.5293 16.3368 86.9451 15.752C86.3608 15.1672 85.7765 14.6515 85.2083 14.2048C84.64 14.6515 84.0558 15.1672 83.4715 15.752C82.8872 16.3368 82.372 16.9217 81.9258 17.4905C82.372 18.0592 82.8872 18.6441 83.4715 19.2289C84.0558 19.8137 84.64 20.3294 85.2083 20.7761C85.7765 20.3294 86.3608 19.8137 86.9451 19.2289Z" 
fill="currentColor"/>
</g>
<g id="Group_23">
<path id="Vector_17" d="M85.2073 13.0931C86.6507 12.0506 88.125 11.3239 89.2997 11.219C86.8221 9.5953 83.5938 9.5953 81.1162 11.219C82.2909 11.3239 83.7639 12.0506 85.2073 13.0931Z" 
fill="currentColor"/>
</g>
<g id="Group_24">
<path id="Vector_18" d="M85.2066 21.8865C83.7632 22.929 82.289 23.6557 81.1143 23.7606C83.5919 25.3843 86.8201 25.3843 89.2977 23.7606C88.1242 23.6557 86.6512 22.929 85.2066 21.8865Z" 
fill="currentColor"/>
</g>
<g id="Group_25">
<path id="Vector_19" d="M80.8146 17.4903C79.773 16.0455 79.047 14.5699 78.9422 13.394C77.32 15.874 77.32 19.1053 78.9422 21.5853C79.047 20.4094 79.773 18.9351 80.8146 17.4903Z" 
fill="currentColor"/>
</g>
<g id="Group_26">
<path id="Vector_20" d="M80.0759 12.3528C79.483 12.9462 79.9403 14.6896 81.3775 16.7513C81.8299 16.1862 82.323 15.6359 82.8395 15.1189C83.3559 14.602 83.9057 14.1085 84.4702 13.6557C82.4093 12.2158 80.6688 11.7581 80.0759 12.3528Z" 
fill="currentColor"/>
</g>
</g>
</g>
</g>
</g>
</svg>
