<svg width="160" height="160" viewBox="0 0 160 160" fill="none" xmlns="http://www.w3.org/2000/svg">
<g id="icon_mint_arbitrum">
<path id="Vector" d="M98.0227 73.3028L109.772 53.3678L141.44 102.692L141.454 112.155L141.351 47.0185C141.314 46.2328 141.088 45.4675 140.693 44.7873C140.299 44.1071 139.746 43.5318 139.082 43.1101L82.0679 10.3169C81.3867 9.99328 80.6415 9.82707 79.8874 9.83062C79.1332 9.83417 78.3896 10.0074 77.7115 10.3375C77.5355 10.4257 77.365 10.5243 77.2007 10.6327L77.0023 10.7582L21.6599 42.8274L21.4444 42.9243C21.1575 43.0572 20.8838 43.2167 20.6269 43.4009C19.589 44.1421 18.8817 45.2593 18.6556 46.5145C18.621 46.7049 18.5974 46.8972 18.585 47.0903L18.6716 100.17L48.1688 54.4509C51.8821 48.3889 59.9735 46.4359 67.4846 46.5419L76.3 46.7699L24.3562 130.072L30.4798 133.597L83.0461 46.8532L106.281 46.7688L53.85 135.698L75.7015 148.274L78.3123 149.775C79.4386 150.223 80.6888 150.247 81.8319 149.845L139.647 116.34L128.588 122.745L98.0227 73.3028ZM102.506 137.864L80.4375 103.229L93.908 80.3704L122.89 126.05L102.506 137.864Z" fill="#2D374B"/>
<path id="Vector_2" d="M80.4375 103.228L102.506 137.863L122.891 126.049L93.9103 80.3701L80.4375 103.228Z" fill="#28A0F0"/>
<path id="Vector_3" d="M141.458 112.156L141.443 102.693L109.775 53.3691L98.0195 73.3018L128.591 122.744L139.65 116.339C140.185 115.905 140.623 115.363 140.935 114.748C141.247 114.134 141.425 113.46 141.459 112.772L141.458 112.156Z" fill="#28A0F0"/>
<path id="Vector_4" d="M8.75 121.083L24.3594 130.077L76.3031 46.7755L67.4877 46.5475C59.9766 46.4415 51.8852 48.3934 48.1719 54.4565L18.6747 100.175L8.7557 115.422V121.087L8.75 121.083Z" fill="white"/>
<path id="Vector_5" d="M106.283 46.7744L83.0497 46.8588L30.4834 133.602L48.8564 144.182L53.8524 135.707L106.283 46.7744Z" fill="white"/>
<path id="Vector_6" d="M151.244 46.655C151.138 44.2573 150.45 41.9214 149.24 39.8488C148.029 37.7761 146.333 36.0289 144.297 34.7579L86.5367 1.54165C84.4747 0.528365 82.2078 0.00146484 79.9103 0.00146484C77.6128 0.00146484 75.3459 0.528365 73.284 1.54165C72.8017 1.78449 17.1126 34.0829 17.1126 34.0829C16.3389 34.4544 15.5988 34.8923 14.9008 35.3918C13.0925 36.6776 11.5991 38.3566 10.5328 40.3024C9.46651 42.2482 8.85497 44.4104 8.74414 46.6265V115.419L18.6632 100.172L18.5868 47.0951C18.6332 46.3674 18.8404 45.659 19.1935 45.0211C19.5466 44.3831 20.0368 43.8314 20.6287 43.4056C20.891 43.2175 77.5309 10.4323 77.711 10.3422C78.3891 10.0122 79.1328 9.83894 79.8869 9.83539C80.641 9.83184 81.3863 9.99804 82.0674 10.3217L139.081 43.1172C139.745 43.5389 140.298 44.1141 140.693 44.7943C141.088 45.4746 141.313 46.2398 141.35 47.0255V112.778C141.336 113.46 141.177 114.131 140.883 114.746C140.589 115.361 140.167 115.907 139.646 116.346L128.587 122.751L122.886 126.057L102.501 137.871L81.8269 149.853C80.6839 150.256 79.4335 150.231 78.3073 149.783L53.8484 135.715L48.8524 144.189L70.8338 156.844C71.5612 157.257 72.2088 157.624 72.7401 157.923C73.5633 158.379 74.1242 158.692 74.3215 158.788C76.1605 159.594 78.1488 160.003 80.1566 159.988C81.998 159.991 83.8234 159.648 85.5379 158.976L145.585 124.202C147.279 122.885 148.663 121.211 149.641 119.301C150.618 117.39 151.165 115.288 151.242 113.143L151.244 46.655Z" fill="#96BEDC"/>
</g>
</svg>
