<svg width="160" height="160" viewBox="0 0 160 160" fill="none" xmlns="http://www.w3.org/2000/svg">
<g id="img_connectwallect_metamask_m">
<path id="Vector" d="M144.989 6.86097L86.165 50.381L97.1015 24.7339L144.989 6.85156V6.86097Z" fill="#E17726"/>
<path id="Vector_2" d="M9.32691 6.86133L67.6328 50.7954L57.214 24.7249L9.32691 6.87074V6.86133ZM123.802 107.793L108.15 131.699L141.666 140.932L151.266 108.32L123.802 107.793ZM3.08691 108.301L12.621 140.913L46.0799 131.69L30.4846 107.784L3.08691 108.301Z" fill="#E27625"/>
<path id="Vector_3" d="M44.301 67.3883L34.9834 81.4307L68.1505 82.9365L67.0493 47.2471L44.301 67.3883ZM110.023 67.3883L86.9175 46.833L86.1646 82.9271L119.332 81.4212L110.014 67.3695L110.023 67.3883ZM46.0893 131.689L66.1552 121.995L48.8752 108.537L46.0893 131.689ZM88.1599 121.995L108.169 131.689L105.44 108.537L88.1599 121.995Z" fill="#E27625"/>
<path id="Vector_4" d="M108.17 131.699L88.1604 122.005L89.7887 135.003L89.6098 140.518L108.17 131.699ZM46.0898 131.699L64.7063 140.518L64.5934 135.003L66.1557 122.005L46.0898 131.699Z" fill="#D5BFB2"/>
<path id="Vector_5" d="M65.0541 99.9433L48.4141 95.0586L60.1694 89.6562L65.0635 99.9339L65.0541 99.9433ZM89.2611 99.9433L94.1552 89.6657L105.958 95.068L89.2611 99.9433Z" fill="#233447"/>
<path id="Vector_6" d="M46.0992 131.708L49.0074 107.802L30.5039 108.32L46.0992 131.708ZM105.318 107.774L108.17 131.68L123.822 108.301L105.318 107.774ZM119.332 81.4307L86.1651 82.9365L89.2521 99.953L94.1368 89.6754L105.949 95.0683L119.332 81.4307ZM48.4333 95.0683L60.1792 89.6754L65.0733 99.9436L68.151 82.946L34.9933 81.4401L48.4333 95.0589V95.0683Z" fill="#CC6228"/>
<path id="Vector_7" d="M34.9932 81.4307L48.8943 108.537L48.4238 95.0777L34.9932 81.4307ZM105.958 95.0683L105.44 108.537L119.341 81.4307L105.958 95.0777V95.0683ZM68.1414 82.946L65.0543 99.9436L68.9508 120.028L69.8261 93.5624L68.132 82.9365L68.1414 82.946ZM86.1743 82.946L84.5461 93.506L85.3649 120.028L89.2614 99.9436L86.1743 82.946Z" fill="#E27525"/>
<path id="Vector_8" d="M89.2611 99.9529L85.3646 120.028L88.1599 122.005L105.44 108.546L105.958 95.0776L89.2611 99.9529ZM48.4141 95.0776L48.8846 108.536L66.1647 121.995L68.9505 120.028L65.0541 99.9529L48.4141 95.0776Z" fill="#F5841F"/>
<path id="Vector_9" d="M89.6098 140.518L89.7793 135.002L88.2734 133.722H66.0428L64.5934 135.002L64.7063 140.518L46.0898 131.689L52.6028 137.026L65.8075 146.146H88.4428L101.713 137.026L108.17 131.689L89.6098 140.518Z" fill="#C0AC9D"/>
<path id="Vector_10" d="M88.1598 122.005L85.3645 120.028H68.9504L66.1645 122.005L64.5928 135.012L66.0422 133.732H88.2822L89.7881 135.012L88.1692 122.005H88.1598Z" fill="#161616"/>
<path id="Vector_11" d="M147.511 53.2327L152.452 29.2045L145.007 6.86097L88.1604 48.9316L110.024 67.388L140.923 76.3857L147.727 68.4327L144.763 66.2869L149.469 61.9951L145.864 59.2092L150.579 55.6045L147.502 53.2327H147.511ZM1.8639 29.2045L6.87096 53.2327L3.67096 55.6045L8.44273 59.2092L4.82861 61.9951L9.54391 66.2869L6.5792 68.4327L13.3839 76.3857L44.2827 67.388L66.1651 48.941L9.31802 6.85156L1.85449 29.2045H1.8639Z" fill="#763E1A"/>
<path id="Vector_12" d="M140.932 76.3858L110.023 67.3881L119.341 81.4305L105.43 108.536L123.812 108.311H151.275L140.922 76.3858H140.932ZM44.2822 67.3881L13.3834 76.3858L3.08691 108.311H30.4846L48.8751 108.536L34.974 81.4305L44.2822 67.3881ZM86.174 82.9364L88.1504 48.9223L97.1199 24.7246H57.2046L66.1646 48.9223L68.141 82.9364L68.894 93.6187L68.9504 120.019H85.3646L85.421 93.6187L86.174 82.9364Z" fill="#F5841F"/>
</g>
</svg>
