<svg width="16" height="16" viewBox="0 0 16 16" fill="none" xmlns="http://www.w3.org/2000/svg">
<g id="Frame">
<path id="Vector" d="M7.30614 0.121787C7.15685 0.201765 6.76163 0.426367 6.4284 0.621644C6.09516 0.816255 5.09811 1.39476 4.21303 1.90594C3.25874 2.457 2.30568 3.01018 1.35385 3.56547C0.599397 4.00201 0.683373 3.5588 0.670044 7.15644C0.663379 8.84396 0.673376 10.2256 0.691371 10.2256C0.709366 10.2256 0.871319 9.99496 1.0506 9.71304C1.22988 9.43179 1.65043 8.77798 1.985 8.26079C2.31957 7.74361 2.9314 6.79454 3.34461 6.15006C4.18637 4.8411 4.31767 4.68182 4.73555 4.47454C5.26473 4.21262 6.36241 4.08399 7.08621 4.19929L7.26282 4.22795L6.75497 5.04238C5.22894 7.4902 3.70316 9.93816 2.17761 12.3863C1.72974 13.1034 1.37451 13.7086 1.38784 13.7306C1.41583 13.7752 1.95834 14.0911 2.00766 14.0911C2.02432 14.0911 2.11096 13.9692 2.19894 13.8199C2.28691 13.6706 2.71346 12.9648 3.14667 12.2523C3.57988 11.5392 4.17171 10.5615 4.46362 10.0796C4.75487 9.59641 5.34137 8.62802 5.76658 7.92689C6.26468 7.10504 6.76253 6.28305 7.26016 5.46093C7.50561 5.04991 7.75623 4.64199 8.01194 4.23728C8.0286 4.21995 8.63643 4.21062 9.36289 4.21728L10.6838 4.22795L10.4732 4.58318L9.91873 5.52291C9.35778 6.47743 8.7966 7.43182 8.23521 8.38609C8.03927 8.71933 7.82733 9.07722 7.76401 9.18053C7.39878 9.77636 4.70955 14.3724 4.72088 14.3804C5.26969 14.6919 5.81753 15.0052 6.36441 15.3201C7.64805 16.0579 7.72069 16.0839 8.01594 15.9033C8.09592 15.8546 8.60444 15.5607 9.14428 15.2515C10.3353 14.569 10.2733 14.6203 10.1567 14.4117C10.1067 14.3231 10.0794 14.2351 10.096 14.2164C10.1127 14.1978 10.1053 14.1951 10.0787 14.2098C10.052 14.2251 10.02 14.2138 10.0067 14.1851C9.97005 14.1084 9.80676 13.8519 9.36889 13.1874C9.26892 13.0341 9.18627 12.8888 9.18627 12.8635C9.18627 12.8375 9.17161 12.8168 9.15428 12.8168C9.11229 12.8168 8.83771 12.3576 8.83771 12.2883C8.83771 12.259 8.82438 12.243 8.80838 12.253C8.77906 12.2716 8.51713 11.8784 8.51713 11.8158C8.51713 11.7971 8.48847 11.7578 8.45248 11.7285C8.41716 11.6991 8.3985 11.6485 8.41049 11.6165C8.42249 11.5845 8.41716 11.5678 8.39783 11.5798C8.3785 11.5918 8.22521 11.3839 8.05793 11.1186C7.83999 10.7727 7.76735 10.6254 7.80467 10.6028C7.83266 10.5855 7.85332 10.5548 7.85066 10.5341C7.84599 10.5015 8.07726 10.1016 8.78972 8.90861C8.88569 8.74798 9.02499 8.50805 9.09896 8.37542C9.17361 8.24346 9.25025 8.13549 9.26958 8.13549C9.31624 8.13549 9.70146 8.75332 9.70146 8.8273C9.70146 8.85862 9.71545 8.87528 9.73278 8.86528C9.75944 8.84862 9.84942 8.98125 10.0427 9.31649C10.0654 9.35714 10.2426 9.6364 10.4359 9.93764C10.6299 10.2376 10.7885 10.5095 10.7885 10.5408C10.7885 10.5721 10.8058 10.5875 10.8278 10.5741C10.8505 10.5595 10.8551 10.5901 10.8391 10.6488C10.8191 10.7188 10.8225 10.7308 10.8511 10.6894C10.8825 10.6441 10.9071 10.6621 10.9631 10.7727C11.0031 10.8507 11.0671 10.9527 11.1064 10.9987C11.1464 11.0447 11.233 11.1733 11.3003 11.2853C11.4843 11.5925 11.5989 11.7751 11.7669 12.0304C11.8269 12.121 11.8562 12.207 11.8375 12.2397C11.8202 12.2696 11.8209 12.2803 11.8395 12.2636C11.8842 12.2237 12.0748 12.4822 12.0415 12.5369C12.0268 12.5596 12.0341 12.5676 12.0568 12.5529C12.0794 12.5396 12.1881 12.6789 12.2974 12.8635C12.5626 13.3087 12.54 13.3047 13.0198 12.9994L13.2378 12.8608L13.0198 12.5042C12.5553 11.7451 12.4927 11.6312 12.5173 11.5912C12.5306 11.5685 12.5227 11.5625 12.4973 11.5778C12.4713 11.5938 12.396 11.5045 12.3167 11.3646C12.2463 11.2392 12.1704 11.1169 12.0894 10.998C11.9242 10.7439 11.7647 10.4861 11.6109 10.2249C11.3976 9.869 11.1777 9.50777 11.1204 9.42312C11.0597 9.33248 11.0297 9.24651 11.0484 9.21452C11.0664 9.18386 11.0644 9.17386 11.0457 9.19119C10.9891 9.24184 10.3813 8.28012 10.4253 8.20947C10.4406 8.18481 10.4339 8.17615 10.4106 8.19081C10.3873 8.20481 10.3173 8.12816 10.2546 8.01953C10.074 7.70628 9.86275 7.36705 9.80943 7.3064C9.75678 7.24575 9.81543 7.11579 10.086 6.69324C10.1593 6.57861 10.254 6.42465 10.296 6.35134C10.3373 6.27803 10.3859 6.22604 10.4026 6.2367C10.4199 6.24737 10.4479 6.23404 10.4646 6.20738C10.4832 6.17672 10.4766 6.16939 10.4466 6.18805C10.4199 6.20471 10.3979 6.20671 10.3979 6.19272C10.3979 6.16206 10.7805 5.49025 10.8151 5.46093C10.8285 5.44893 10.8858 5.35029 10.9424 5.24099C11.0417 5.05104 11.1357 4.99839 11.1244 5.13968C11.1211 5.17634 11.1337 5.20233 11.1524 5.19767C11.179 5.191 11.6522 5.86081 11.6522 5.90613C11.6522 5.9128 11.7622 6.08341 11.8962 6.28469C12.0308 6.48663 12.2327 6.79788 12.346 6.97783C12.4587 7.15644 12.6926 7.52367 12.8659 7.79292C13.0392 8.06151 13.2258 8.35676 13.2811 8.44874C13.3371 8.54071 13.3944 8.62535 13.4084 8.63735C13.4231 8.64868 13.471 8.72399 13.515 8.80397C13.559 8.88395 13.619 8.97392 13.6483 9.00524C13.6983 9.05856 13.7163 9.12121 13.7043 9.19386C13.7003 9.21319 13.7143 9.21852 13.7336 9.20652C13.7536 9.19452 13.9649 9.4931 14.2035 9.87166C14.4428 10.2489 14.648 10.5348 14.66 10.5068C14.672 10.4782 14.6734 9.00258 14.6614 7.22775L14.6414 4.00001L14.5367 3.89604C14.4794 3.83939 13.8963 3.48482 13.2411 3.10893C9.95872 1.22481 8.83037 0.575657 8.37184 0.309067C7.74935 -0.0534958 7.66404 -0.0681582 7.30548 0.122454L7.30614 0.121787ZM12.1961 13.2927C12.1961 13.302 12.2254 13.3207 12.2607 13.334C12.298 13.3487 12.3147 13.3413 12.3007 13.318C12.2754 13.278 12.1961 13.2587 12.1961 13.2927Z" fill="#359DE9"/>
</g>
</svg>
