<svg width="160" height="160" viewBox="0 0 160 160" fill="none" xmlns="http://www.w3.org/2000/svg">
<g id="img_connectwallect_wallet_m">
<mask id="mask0_1168_11964" style="mask-type:alpha" maskUnits="userSpaceOnUse" x="0" y="0" width="160" height="160">
<rect id="Rectangle 572" width="160" height="160" fill="#D9D9D9"/>
</mask>
<g mask="url(#mask0_1168_11964)">
<path id="Vector" d="M34.9034 51.1994C59.8094 26.5696 100.192 26.5696 125.098 51.1994L128.095 54.164C128.391 54.4536 128.626 54.8002 128.786 55.1831C128.946 55.5661 129.029 55.9777 129.029 56.3936C129.029 56.8094 128.946 57.221 128.786 57.604C128.626 57.987 128.391 58.3335 128.095 58.6232L117.842 68.7635C117.54 69.0596 117.135 69.2252 116.714 69.2252C116.293 69.2252 115.889 69.0596 115.587 68.7635L111.462 64.6844C94.086 47.502 65.915 47.502 48.5393 64.6844L44.1219 69.0531C43.8198 69.3492 43.4154 69.5148 42.9944 69.5148C42.5735 69.5148 42.1691 69.3492 41.867 69.0531L31.6134 58.9127C31.3179 58.6231 31.0831 58.2765 30.9227 57.8936C30.7623 57.5106 30.6796 57.099 30.6796 56.6831C30.6796 56.2673 30.7623 55.8557 30.9227 55.4727C31.0831 55.0897 31.3179 54.7432 31.6134 54.4535L34.9029 51.1994H34.9034ZM146.304 72.1704L155.43 81.1952C155.726 81.4848 155.961 81.8314 156.121 82.2144C156.281 82.5973 156.364 83.0089 156.364 83.4248C156.364 83.8406 156.281 84.2522 156.121 84.6352C155.961 85.0182 155.726 85.3647 155.43 85.6544L114.28 126.349C113.035 127.58 111.016 127.58 109.771 126.349L80.5647 97.4668C80.4136 97.3188 80.2115 97.236 80.001 97.236C79.7906 97.236 79.5884 97.3188 79.4373 97.4668L50.2315 126.349C48.9859 127.58 46.9669 127.58 45.7213 126.349L4.57073 85.6544C4.27521 85.3647 4.04027 85.0181 3.87983 84.6351C3.71939 84.2521 3.63672 83.8404 3.63672 83.4245C3.63672 83.0086 3.71939 82.597 3.87983 82.2139C4.04027 81.8309 4.27521 81.4843 4.57073 81.1947L13.697 72.1699C14.942 70.9386 16.9611 70.9386 18.2066 72.1699L47.4129 101.052C47.564 101.2 47.7662 101.282 47.9767 101.282C48.1871 101.282 48.3893 101.2 48.5404 101.052L77.7447 72.1704C78.9902 70.9391 81.0087 70.9386 82.2543 72.1704L111.461 101.052C111.612 101.2 111.814 101.283 112.024 101.283C112.235 101.283 112.437 101.2 112.588 101.052L141.794 72.1704C143.04 70.9391 145.058 70.9391 146.304 72.1704Z" fill="#3B99FC"/>
</g>
</g>
</svg>
