<svg width="24" height="24" viewBox="0 0 24 24" fill="none" xmlns="http://www.w3.org/2000/svg">
<g id="icon_zealy">
<mask id="mask0_1715_14341" style="mask-type:alpha" maskUnits="userSpaceOnUse" x="0" y="0" width="24" height="24">
<rect id="Rectangle 671" width="24" height="24" fill="#D9D9D9"/>
</mask>
<g mask="url(#mask0_1715_14341)">
<g id="Group 699">
<path id="Vector" d="M2.40992 11.612C2.21314 11.4012 2.09507 11.2194 1.92827 11.1049C0.884374 10.3941 0.627617 9.42704 0.70633 8.22547C0.807534 6.66217 0.730694 5.08796 0.730694 3.45377C1.04368 3.45377 1.29668 3.44468 1.54969 3.45559C6.70169 3.66282 11.7975 3.31925 16.792 1.99045C16.837 1.97772 16.8932 1.98318 16.9307 1.96136C18.3532 1.14517 19.339 1.69778 20.2911 2.81936C21.1532 3.83369 22.212 4.68623 23.1304 5.65693C23.3853 5.92779 23.5614 6.36406 23.5783 6.73307C23.6308 8.0037 23.5596 9.27979 23.612 10.5504C23.6401 11.2121 23.4808 11.7247 22.9242 12.1101C22.6731 12.2846 22.4182 12.4537 21.9553 12.7663C22.5381 13.2226 22.8961 13.5262 23.2803 13.7988C23.88 14.226 24.0187 14.7859 23.9981 15.4876C23.9494 17.1054 23.9625 18.7269 23.9944 20.3465C24.0037 20.85 23.8332 21.0682 23.3365 21.2227C19.1497 22.5351 14.8486 23.1459 10.4631 23.2241C8.77074 23.2532 7.07652 23.1895 5.38418 23.1205C5.06932 23.1077 4.69449 22.9369 4.46585 22.7206C3.11834 21.4426 1.79333 20.1411 0.492679 18.8196C0.273405 18.596 0.0972361 18.2324 0.0878655 17.9289C0.0485086 16.4692 0.0522569 15.0095 0.095362 13.5516C0.102859 13.2898 0.307139 12.9536 0.528288 12.7918C1.09428 12.3737 1.72211 12.0338 2.40992 11.612ZM13.1525 18.556C13.1244 18.4596 13.0962 18.3633 13.0681 18.2651C13.2443 18.1215 13.4223 17.9798 13.5966 17.8361C16.1567 15.7221 18.7187 13.6116 21.2731 11.4902C21.4624 11.3321 21.7098 11.1103 21.7229 10.9049C21.7754 10.1142 21.7435 9.31797 21.7435 8.43089C16.9757 9.7397 12.2192 10.0905 7.41761 10.016C7.41761 11.0122 7.41761 11.9065 7.41761 12.9808C10.1201 12.8718 12.7776 12.7645 15.4839 12.6573C15.1972 12.8827 14.9217 13.1281 14.618 13.3371C12.1554 15.0458 9.68719 16.7473 7.22833 18.4596C7.02967 18.5978 6.7523 18.7996 6.73918 18.9868C6.68483 19.7812 6.71669 20.5828 6.71669 21.4445C7.54131 21.4445 8.25535 21.439 8.96752 21.4445C13.2349 21.4772 17.4405 21.0391 21.5561 19.9121C21.7735 19.8521 22.109 19.6667 22.1183 19.5231C22.1727 18.6796 22.1446 17.8325 22.1446 17.0418C19.0897 17.558 16.1211 18.0579 13.1525 18.556Z" fill="black"/>
<g id="Group">
<path id="Vector_2" d="M22.1859 17.1212V16.7922L13.5411 18.3058C13.607 18.2504 13.6711 18.1949 13.737 18.1395L15.0481 17.0122C17.0788 15.2694 19.1773 13.4657 21.2374 11.686C21.5029 11.455 21.7519 11.2018 21.7721 10.8987C21.8105 10.3074 21.805 9.71783 21.7977 9.09503C21.7959 8.85848 21.7922 8.61638 21.7922 8.36689V8.00098L21.4424 8.10077C17.3114 9.27984 12.8874 9.78621 7.52395 9.7012L7.24562 9.6975V13.2828L14.5995 12.976C14.5317 13.0296 14.464 13.0813 14.3962 13.1312C13.3818 13.8631 12.3673 14.5949 11.3529 15.3249C9.95937 16.3284 8.56587 17.3319 7.1742 18.3391C6.89953 18.5387 6.60289 18.7771 6.58274 19.082C6.54429 19.6808 6.54978 20.274 6.55528 20.9005C6.55711 21.1297 6.55894 21.3625 6.55894 21.5991V21.8763L7.59536 21.8744C8.09527 21.8744 8.56404 21.8726 9.03098 21.8763C9.17747 21.8781 9.32396 21.8781 9.47045 21.8781C13.7938 21.8781 17.7033 21.3644 21.4077 20.3091C21.415 20.3073 22.131 20.091 22.1566 19.6641C22.1969 19.0099 22.1914 18.3613 22.1859 17.7311C22.1877 17.5222 22.1859 17.3208 22.1859 17.1212Z" fill="#87CD00"/>
<path id="Vector_3" d="M23.1839 13.5952C22.9422 13.4159 22.7096 13.2237 22.4148 12.9779C22.3415 12.9169 22.2646 12.8541 22.1841 12.7876L22.2976 12.7081C22.5137 12.5566 22.6748 12.4438 22.8341 12.3292C23.5831 11.7915 23.6417 11.0319 23.6215 10.507C23.5959 9.86761 23.6014 9.2134 23.605 8.57951C23.6105 7.94008 23.6142 7.27847 23.5886 6.6261C23.5702 6.18072 23.367 5.67065 23.0795 5.35463C22.6968 4.93327 22.2848 4.52854 21.8874 4.1386C21.3491 3.61005 20.7924 3.06487 20.3163 2.48088C19.5271 1.51434 18.4046 0.534864 16.709 1.53097C16.676 1.53467 16.643 1.54021 16.6119 1.54761C12.1769 2.77657 7.33351 3.26077 1.79981 3.02976C1.62768 3.02237 1.45555 3.02421 1.27244 3.02606C1.18271 3.02606 1.08932 3.02791 0.988612 3.02791H0.713941V3.30512C0.713941 3.81149 0.721265 4.31047 0.72859 4.8076C0.74507 5.9571 0.759719 7.04376 0.691967 8.13967C0.60041 9.62552 1.00326 10.6031 2.00306 11.311C2.07265 11.3609 2.13857 11.4366 2.21731 11.5346C2.11293 11.5993 2.01222 11.6621 1.91151 11.7249C1.45738 12.0058 1.0289 12.2701 0.627877 12.5787C0.334895 12.8042 0.106002 13.2274 0.0968464 13.5656C0.0510679 15.0625 0.0492367 16.565 0.0876907 18.025C0.0968464 18.3891 0.285454 18.8271 0.558294 19.1154C1.83277 20.4644 3.14203 21.8006 4.44764 23.0887C4.7278 23.3641 5.15995 23.5581 5.52435 23.5747C6.97278 23.6357 8.30585 23.6875 9.63343 23.6875C9.92275 23.6875 10.2121 23.6856 10.5014 23.6801C14.984 23.5988 19.2433 22.9094 23.1601 21.6324C23.7625 21.4365 24.0042 21.1002 23.9932 20.4718C23.9676 19.1209 23.9438 17.3394 23.9969 15.5449C24.017 14.8925 23.9346 14.1514 23.1839 13.5952ZM23.4457 20.4829C23.453 20.8673 23.3688 20.9838 22.9934 21.1057C19.0748 22.3827 14.9859 23.0443 10.4941 23.1275C8.88815 23.1571 7.30422 23.0979 5.54815 23.0222C5.3156 23.0129 5.01529 22.8743 4.83218 22.6932C3.53023 21.4107 2.22646 20.0782 0.955651 18.7346C0.7762 18.5443 0.642526 18.2412 0.637033 18.0121C0.598579 16.5613 0.60041 15.0699 0.644357 13.5822C0.649851 13.4122 0.800004 13.1442 0.959314 13.0204C1.33836 12.7284 1.75586 12.4715 2.19716 12.198C2.38577 12.0816 2.57987 11.9615 2.77764 11.834L3.05231 11.6584L2.8344 11.4144C2.77214 11.3461 2.71904 11.2795 2.6696 11.2186C2.55973 11.0836 2.45719 10.9561 2.31802 10.8582C1.48119 10.2649 1.15891 9.46289 1.23948 8.17293C1.30906 7.05485 1.29441 5.95895 1.27793 4.79836C1.27244 4.39548 1.26695 3.98891 1.26511 3.58048C1.27061 3.58048 1.27427 3.58048 1.27976 3.58048C1.46288 3.57863 1.62219 3.57679 1.77966 3.58418C7.37014 3.81704 12.2684 3.3273 16.7511 2.08539L16.7694 2.08355C16.8133 2.078 16.8866 2.07061 16.9598 2.02626C18.0567 1.37019 18.8789 1.5975 19.8915 2.83571C20.3877 3.44373 20.9554 3.99999 21.5047 4.53778C21.8966 4.92218 22.3031 5.32136 22.6748 5.73163C22.8762 5.9534 23.0264 6.33226 23.0392 6.65013C23.0648 7.28956 23.0594 7.94377 23.0557 8.57766C23.0502 9.21709 23.0465 9.8787 23.0722 10.5311C23.0978 11.1853 22.9367 11.5752 22.5155 11.8783C22.358 11.9929 22.1987 12.1038 21.9845 12.2535L21.2722 12.7543L21.556 12.9853C21.7483 13.1424 21.9149 13.281 22.0669 13.4067C22.369 13.658 22.6071 13.8557 22.8598 14.0424C23.3047 14.3732 23.4714 14.789 23.4494 15.5282C23.3963 17.3357 23.4183 19.1246 23.4457 20.4829Z" fill="#87CD00"/>
</g>
</g>
</g>
</g>
</svg>
