<svg width="24" height="24" viewBox="0 0 24 24" fill="none" xmlns="http://www.w3.org/2000/svg">
<g id="icon_twitter">
<path id="Vector" d="M20.6011 8.72336C20.6011 8.5264 20.5972 8.33166 20.5882 8.13825C21.4543 7.51088 22.2058 6.72555 22.8002 5.82689C21.993 6.17995 21.1341 6.40837 20.2545 6.50393C21.17 5.95626 21.8721 5.08038 22.2039 4.02927C21.3467 4.53464 20.3985 4.89593 19.3903 5.08419C18.5825 4.19068 17.4298 3.62157 16.1554 3.60042C13.7079 3.56109 11.7239 5.57163 11.7239 8.09051C11.7239 8.44855 11.7624 8.79577 11.8389 9.13106C8.15331 8.90051 4.88741 7.03563 2.70279 4.22431C2.32159 4.89786 2.1029 5.68504 2.1029 6.52863C2.1029 8.12418 2.88529 9.54228 4.07405 10.3791C3.3463 10.3471 2.66457 10.1328 2.06663 9.78154V9.84013C2.06663 12.0701 3.59467 13.9385 5.6222 14.3744C5.2505 14.4772 4.85845 14.5307 4.45524 14.5288C4.17509 14.5274 3.89585 14.4976 3.62203 14.4401C4.18541 16.2675 5.8228 17.6026 7.7613 17.6471C6.24415 18.8699 4.33301 19.6004 2.25808 19.5953C1.90032 19.5953 1.54679 19.5719 1.2002 19.5296C3.16216 20.8379 5.49106 21.5999 7.99462 21.5999C16.1442 21.6017 20.6011 14.7062 20.6011 8.72336Z" fill="#87CD00"/>
</g>
</svg>
