<svg width="24" height="24" viewBox="0 0 24 24" fill="none" xmlns="http://www.w3.org/2000/svg">
<g id="icon_discord">
<g id="Frame">
<path id="Vector" d="M19.6695 5.01885C19.6634 5.00697 19.6532 4.99767 19.6409 4.9926C18.2112 4.33667 16.7026 3.86895 15.1526 3.60112C15.1386 3.5985 15.124 3.60039 15.1111 3.60652C15.0981 3.61265 15.0874 3.6227 15.0805 3.63525C14.8751 4.00811 14.6886 4.39109 14.5218 4.78275C12.851 4.52913 11.1516 4.52913 9.4808 4.78275C9.31287 4.3901 9.12339 4.00702 8.91324 3.63525C8.90603 3.62297 8.8953 3.61315 8.88243 3.60706C8.86956 3.60098 8.85515 3.59891 8.84109 3.60112C7.29098 3.86838 5.78223 4.33614 4.35279 4.99264C4.34056 4.99782 4.33023 5.00668 4.32324 5.01799C1.46465 9.28691 0.681579 13.4509 1.06573 17.5633C1.06681 17.5734 1.06991 17.5831 1.07483 17.592C1.07976 17.6008 1.08642 17.6086 1.09442 17.6148C2.75895 18.8473 4.62074 19.788 6.60035 20.3969C6.6143 20.4011 6.62918 20.4009 6.64301 20.3964C6.65684 20.3919 6.66895 20.3832 6.67772 20.3716C7.10289 19.7931 7.47963 19.1805 7.8041 18.54C7.80856 18.5312 7.81111 18.5216 7.81157 18.5117C7.81204 18.5019 7.81041 18.4921 7.8068 18.4829C7.80319 18.4737 7.79768 18.4654 7.79063 18.4585C7.78358 18.4517 7.77515 18.4463 7.76589 18.443C7.1718 18.2156 6.59665 17.9416 6.04584 17.6235C6.03584 17.6176 6.02743 17.6093 6.02137 17.5994C6.01532 17.5895 6.01179 17.5783 6.0111 17.5667C6.01042 17.5551 6.01259 17.5435 6.01744 17.533C6.02229 17.5224 6.02966 17.5133 6.0389 17.5062C6.15481 17.4197 6.2687 17.3304 6.38049 17.2386C6.3903 17.2305 6.40216 17.2253 6.41475 17.2236C6.42734 17.222 6.44015 17.2238 6.45174 17.229C10.0603 18.8759 13.9671 18.8759 17.533 17.229C17.5446 17.2235 17.5576 17.2214 17.5703 17.2229C17.5831 17.2245 17.5952 17.2296 17.6051 17.2377C17.7171 17.33 17.8312 17.4196 17.9476 17.5062C17.9569 17.5132 17.9643 17.5223 17.9692 17.5328C17.9742 17.5433 17.9764 17.5549 17.9758 17.5665C17.9752 17.5781 17.9718 17.5893 17.9658 17.5993C17.9598 17.6092 17.9515 17.6175 17.9415 17.6235C17.392 17.9443 16.8163 18.2181 16.2206 18.4421C16.2114 18.4456 16.203 18.451 16.196 18.458C16.189 18.465 16.1835 18.4734 16.18 18.4827C16.1764 18.4919 16.1749 18.5018 16.1754 18.5117C16.176 18.5215 16.1786 18.5312 16.1831 18.54C16.513 19.1769 16.8892 19.7887 17.3087 20.3706C17.3172 20.3825 17.3292 20.3915 17.3431 20.3962C17.357 20.4009 17.372 20.4011 17.386 20.3968C19.3692 19.79 21.2342 18.8492 22.9009 17.6148C22.909 17.6089 22.9157 17.6013 22.9207 17.5926C22.9256 17.5838 22.9286 17.5741 22.9295 17.5641C23.3894 12.8098 22.1596 8.67994 19.6695 5.01885ZM8.34302 15.0592C7.25657 15.0592 6.36137 14.0622 6.36137 12.8378C6.36137 11.6133 7.2392 10.6162 8.34302 10.6162C9.45545 10.6162 10.342 11.622 10.3246 12.8377C10.3246 14.0622 9.44675 15.0592 8.34302 15.0592ZM15.6698 15.0592C14.5834 15.0592 13.6882 14.0622 13.6882 12.8378C13.6882 11.6133 14.566 10.6162 15.6698 10.6162C16.7823 10.6162 17.6688 11.622 17.6514 12.8377C17.6514 14.0622 16.7823 15.0592 15.6698 15.0592Z" fill="#87CD00"/>
</g>
</g>
</svg>
