<svg width="24" height="24" viewBox="0 0 24 24" fill="none" xmlns="http://www.w3.org/2000/svg">
<g id="icon_link3">
<mask id="mask0_896_1495" style="mask-type:alpha" maskUnits="userSpaceOnUse" x="0" y="0" width="24" height="24">
<rect id="Rectangle 190" width="24" height="24" fill="#D9D9D9"/>
</mask>
<g mask="url(#mask0_896_1495)">
</g>
<g id="Frame" clip-path="url(#clip0_896_1495)">
<g id="Group">
<path id="Vector" d="M13.4806 3C14.8232 3 16.1658 3 17.5084 3C17.5697 3.03059 17.6361 3.05422 17.6919 3.09315C17.9222 3.2535 17.9922 3.61126 17.7308 3.8921C17.1188 4.54878 16.5183 5.21658 15.914 5.88067C15.2448 6.61613 14.5765 7.35205 13.9072 8.08751C13.1139 8.95922 12.3188 9.82954 11.5274 10.7022C11.1703 11.0956 11.1529 11.667 11.4825 12.0836C12.8787 13.8493 14.2757 15.614 15.6728 17.3792C16.4084 18.3089 17.1449 19.238 17.8801 20.1677C18.0119 20.3345 18.0385 20.5213 17.946 20.7131C17.8554 20.9008 17.6988 20.9981 17.4905 20.9981C16.2148 20.9986 14.9395 20.9949 13.6637 21C13.4101 21.0009 13.2229 20.9092 13.0645 20.7085C10.8911 17.9604 8.71356 15.2155 6.53832 12.4688C6.31585 12.1888 6.05401 11.9307 6 11.5489C6 11.4548 6 11.3602 6 11.2662C6.0563 11.008 6.18173 10.7925 6.36208 10.5988C6.91139 10.008 7.45108 9.40828 7.99489 8.81231C8.51719 8.23998 9.03948 7.66811 9.56178 7.09624C10.1056 6.50027 10.6489 5.9043 11.1928 5.30833C11.7855 4.65814 12.3797 4.00935 12.9711 3.35777C13.1153 3.19927 13.2545 3.038 13.4806 3Z" fill="#87CD00"/>
</g>
</g>
</g>
<defs>
<clipPath id="clip0_896_1495">
<rect width="12" height="18" fill="white" transform="translate(6 3)"/>
</clipPath>
</defs>
</svg>
