<svg width="172" height="36" viewBox="0 0 172 36" fill="none" xmlns="http://www.w3.org/2000/svg">
<g id="simsports-logo-integrity">
<g id="simsports-logo">
<mask id="mask0_1124_6593" style="mask-type:alpha" maskUnits="userSpaceOnUse" x="0" y="0" width="30" height="36">
<rect id="Rectangle 598" width="30" height="36" fill="#D9D9D9"/>
</mask>
<g mask="url(#mask0_1124_6593)">
<g id="Group">
<path id="Vector" d="M14.9993 8.84103L23.5834 17.4319L27 14.0107L14.9993 2L3 14.0107L6.41657 17.4319L14.9993 8.84103Z" 
fill="currentColor"/>
<path id="Vector_2" d="M11.7565 14.438L8.96973 17.2287L10.7473 17.4473L14.7839 21.4878C15.5621 22.2667 16.8218 22.2667 17.6 21.4878L20.4246 18.6606L18.6106 18.4784L14.5726 14.438C13.7958 13.659 12.5347 13.659 11.7565 14.438Z" 
fill="currentColor"/>
<path id="Vector_3" d="M14.9993 26.795L6.41657 18.2041L3 21.6239L14.9993 33.6346L27 21.6239L23.5834 18.2041L14.9993 26.795Z" 
fill="currentColor"/>
</g>
</g>
</g>
<g id="simsports-logo-text">
<mask id="mask1_1124_6593" style="mask-type:alpha" maskUnits="userSpaceOnUse" x="32" y="0" width="140" height="36">
<rect id="Rectangle 599" x="32" width="140" height="36" fill="#D9D9D9"/>
</mask>
<g mask="url(#mask1_1124_6593)">
<g id="Group_2">
<g id="Group_3">
<g id="Group_4">
<path id="Vector_4" d="M167.423 24.9784H156.256V21.6249H167.423C168.099 21.6249 168.651 21.0734 168.651 20.3948C168.651 19.7174 168.1 19.1647 167.423 19.1647H160.053C157.528 19.1647 155.475 17.1092 155.475 14.5823C155.475 12.0555 157.528 10 160.053 10H171.443V13.3535H160.053C159.376 13.3535 158.824 13.905 158.824 14.5836C158.824 15.2609 159.375 15.8137 160.053 15.8137H167.423C169.947 15.8137 172.001 17.8692 172.001 20.396C172.001 22.9228 169.947 24.9784 167.423 24.9784Z" 
fill="currentColor"/>
</g>
</g>
<g id="Group_5">
<path id="Vector_5" d="M43.9479 25.0155H32.7815V21.662H43.9479C44.6246 21.662 45.1768 21.1105 45.1768 20.4319C45.1768 19.7545 44.6259 19.2018 43.9479 19.2018H36.578C34.0536 19.2018 32 17.1463 32 14.6195C32 12.0926 34.0536 10.0371 36.578 10.0371H47.9688V13.3906H36.578C35.9013 13.3906 35.3491 13.9421 35.3491 14.6207C35.3491 15.2993 35.9001 15.8508 36.578 15.8508H43.9479C46.4723 15.8508 48.5259 17.9063 48.5259 20.4331C48.5259 22.96 46.4723 25.0155 43.9479 25.0155Z" 
fill="currentColor"/>
</g>
<g id="Group_6">
<g id="Group_7">
<path id="Vector_6" d="M88.3444 24.9784H77.178V21.6249H88.3444C89.0211 21.6249 89.5733 21.0734 89.5733 20.3948C89.5733 19.7174 89.0223 19.1647 88.3444 19.1647H80.9745C78.45 19.1647 76.3965 17.1092 76.3965 14.5823C76.3965 12.0555 78.45 10 80.9745 10H92.3652V13.3535H80.9745C80.2978 13.3535 79.7455 13.905 79.7455 14.5836C79.7455 15.2609 80.2965 15.8137 80.9745 15.8137H88.3444C90.8688 15.8137 92.9224 17.8692 92.9224 20.396C92.9224 22.9228 90.8688 24.9784 88.3444 24.9784Z" 
fill="currentColor"/>
</g>
</g>
<g id="Group_8">
<path id="Vector_7" d="M54.2224 10.0371H50.8721V25.0155H54.2224V10.0371Z" 
fill="currentColor"/>
</g>
<path id="Vector_8" d="M154.468 16.7057V13.3535H145.534V10.0012H142.185V22.3553C142.185 23.805 143.358 24.9796 144.806 24.9796H154.468V21.6273H146.189C145.827 21.6273 145.534 21.3337 145.534 20.971V16.7057H154.468Z" 
fill="currentColor"/>
<g id="Group_9">
<g id="Group_10">
<path id="Vector_9" d="M139.726 24.9786H136.377L132.804 17.155H136.153L139.726 24.9786Z" 
fill="currentColor"/>
</g>
</g>
<g id="Group_11">
<g id="Group_12">
<path id="Vector_10" d="M94.6133 10.0012V24.9796H97.9636V19.8383H103.547C106.26 19.8383 108.461 17.636 108.461 14.9204C108.461 12.2048 106.26 10.0025 103.547 10.0025H94.6133V10.0012ZM103.547 16.4836H97.9636V13.3547H103.547C104.41 13.3547 105.11 14.0555 105.11 14.9192C105.11 15.7828 104.41 16.4836 103.547 16.4836Z" 
fill="currentColor"/>
</g>
</g>
<g id="Group_13">
<g id="Group_14">
<path id="Vector_11" d="M125.882 10.0012V24.9796H129.232V19.8383H134.816C137.529 19.8383 139.729 17.636 139.729 14.9204C139.729 12.2048 137.529 10.0025 134.816 10.0025H125.882V10.0012ZM134.815 16.4836H129.231V13.3547H134.815C135.678 13.3547 136.378 14.0555 136.378 14.9192C136.379 15.7828 135.679 16.4836 134.815 16.4836Z" 
fill="currentColor"/>
</g>
</g>
<g id="Group_15">
<path id="Vector_12" d="M61.1452 10.0371H57.7949V25.0155H61.1452V10.0371Z" 
fill="currentColor"/>
</g>
<g id="Group_16">
<path id="Vector_13" d="M74.4343 10.0371H71.084V25.0155H74.4343V10.0371Z" 
fill="currentColor"/>
</g>
<g id="Group_17">
<path id="Vector_14" d="M66.114 18.364C61.5261 18.364 57.7949 14.6281 57.7949 10.0371H61.1452C61.1452 12.7799 63.3751 15.0106 66.114 15.0106C68.8541 15.0106 71.0827 12.7786 71.0827 10.0371H74.433C74.433 14.6293 70.7006 18.364 66.114 18.364Z" 
fill="currentColor"/>
</g>
<g id="Group_18">
<g id="Group_19">
<path id="Vector_15" d="M119.576 15.1192C120.093 15.6361 120.586 16.1864 121.038 16.7515C122.476 14.6898 122.933 12.9464 122.34 12.353C121.747 11.7595 120.005 12.2173 117.945 13.6559C118.51 14.1087 119.061 14.6022 119.576 15.1192Z" 
fill="currentColor"/>
</g>
<g id="Group_20">
<path id="Vector_16" d="M114.839 19.8606C114.322 19.3436 113.829 18.7934 113.377 18.2283C111.938 20.29 111.482 22.0333 112.075 22.6268C112.668 23.2202 114.41 22.7625 116.469 21.3239C115.905 20.8711 115.354 20.3776 114.839 19.8606Z" 
fill="currentColor"/>
</g>
<g id="Group_21">
<path id="Vector_17" d="M121.6 17.4905C122.641 18.9353 123.367 20.4109 123.472 21.5867C125.094 19.1068 125.094 15.8755 123.472 13.3955C123.367 14.5701 122.641 16.0445 121.6 17.4905Z" 
fill="currentColor"/>
</g>
<g id="Group_22">
<path id="Vector_18" d="M122.34 22.6268C122.933 22.0333 122.475 20.29 121.038 18.2283C120.586 18.7934 120.093 19.3436 119.576 19.8606C119.06 20.3776 118.51 20.8711 117.945 21.3239C120.006 22.7637 121.747 23.2215 122.34 22.6268Z" 
fill="currentColor"/>
</g>
<g id="Group_23">
<path id="Vector_19" d="M118.945 19.2289C119.529 18.6441 120.045 18.0592 120.491 17.4905C120.045 16.9217 119.529 16.3368 118.945 15.752C118.361 15.1672 117.777 14.6515 117.208 14.2048C116.64 14.6515 116.056 15.1672 115.472 15.752C114.887 16.3368 114.372 16.9217 113.926 17.4905C114.372 18.0592 114.887 18.6441 115.472 19.2289C116.056 19.8137 116.64 20.3294 117.208 20.7761C117.777 20.3294 118.361 19.8137 118.945 19.2289Z" 
fill="currentColor"/>
</g>
<g id="Group_24">
<path id="Vector_20" d="M117.207 13.0931C118.651 12.0506 120.125 11.3239 121.3 11.219C118.822 9.5953 115.594 9.5953 113.116 11.219C114.291 11.3239 115.764 12.0506 117.207 13.0931Z" 
fill="currentColor"/>
</g>
<g id="Group_25">
<path id="Vector_21" d="M117.207 21.8865C115.763 22.929 114.289 23.6557 113.114 23.7606C115.592 25.3843 118.82 25.3843 121.298 23.7606C120.124 23.6557 118.651 22.929 117.207 21.8865Z" 
fill="currentColor"/>
</g>
<g id="Group_26">
<path id="Vector_22" d="M112.815 17.4903C111.773 16.0455 111.047 14.5699 110.942 13.394C109.32 15.874 109.32 19.1053 110.942 21.5853C111.047 20.4094 111.773 18.9351 112.815 17.4903Z" 
fill="currentColor"/>
</g>
<g id="Group_27">
<path id="Vector_23" d="M112.076 12.3528C111.483 12.9462 111.94 14.6896 113.378 16.7513C113.83 16.1862 114.323 15.6359 114.839 15.1189C115.356 14.602 115.906 14.1085 116.47 13.6557C114.409 12.2158 112.669 11.7581 112.076 12.3528Z" 
fill="currentColor"/>
</g>
</g>
</g>
</g>
</g>
</g>
</svg>
