<svg width="62" height="62" viewBox="0 0 62 62" fill="none" xmlns="http://www.w3.org/2000/svg">
<g id="Group 421">
<rect id="Rectangle 417" width="62" height="62" rx="31" fill="white"/>
<g id="Frame" clip-path="url(#clip0_12_178)">
<g id="Group">
<path id="Vector" d="M21.0023 15.3562L29.8707 6.69424C30.8149 5.77119 32.3484 5.77119 33.2926 6.69424L45.4999 18.6275C44.0495 18.7013 42.6294 18.9007 41.2546 19.2035C40.5143 18.081 39.2301 17.3352 37.7571 17.3352C36.6391 17.3352 35.6117 17.8743 34.8412 18.6644C33.5646 19.9788 33.4664 21.1825 33.7005 22.2828C30.7847 24.0624 28.2768 26.4181 26.3429 29.1946C24.4016 27.3485 22.8001 25.1627 21.6368 22.7332C22.9134 22.0465 23.7821 20.7173 23.7821 19.1813C23.7821 17.4091 22.6188 15.9026 21.0023 15.3562Z" fill="#87CD00"/>
<path id="Vector_2" d="M22.0447 42.8115C22.0447 42.1321 22.0749 41.4675 22.1354 40.8029C20.8285 40.5666 19.4839 40.4485 18.1166 40.4485C17.0213 40.4485 15.9486 40.5223 14.8986 40.6774L22.6793 48.276C22.2638 46.5185 22.0447 44.6871 22.0447 42.8115Z" fill="#375400"/>
<path id="Vector_3" d="M42.2894 37.4947C36.4275 37.4947 31.034 35.4935 26.7886 32.1558C25.5649 34.3342 24.7112 36.7415 24.2958 39.2891C27.0832 39.9906 29.6893 41.1648 32.0084 42.7081C32.8998 41.9401 34.1462 41.5414 35.4606 41.7629C37.2811 42.0657 38.7088 43.5869 38.8675 45.3887C38.9657 46.4963 38.6182 47.5154 37.9761 48.2981C38.3311 48.7634 38.6635 49.236 38.9883 49.7233L55.0557 34.0166C51.3316 36.2246 46.9578 37.4947 42.2894 37.4947Z" fill="#659A00"/>
<path id="Vector_4" d="M34.2822 49.8046C33.6703 49.7381 33.0736 49.5166 32.5599 49.1769C30.543 47.8699 30.2559 45.7875 30.8829 44.2736C28.8282 42.9149 26.5393 41.8737 24.0843 41.2239C24.039 41.7482 24.0163 42.2798 24.0163 42.8115C24.0163 45.7875 24.6206 48.6378 25.7159 51.2372L29.8707 55.2986C30.8149 56.2217 32.3484 56.2217 33.2926 55.2986L37.5682 51.119C37.2207 50.5504 36.8355 50.004 36.4275 49.4723C35.7854 49.7603 35.0527 49.8858 34.2822 49.8046Z" fill="#87CD00"/>
<path id="Vector_5" d="M19.7105 23.2352C19.6803 23.2426 19.6576 23.2426 19.6274 23.2426C17.8144 23.2426 16.2734 22.1054 15.7068 20.5251L6.71002 29.3274C5.76577 30.2504 5.76577 31.7495 6.71002 32.6725L13.1989 39.0084C14.7853 38.6909 16.432 38.5284 18.1166 38.5284C19.5669 38.5284 20.9871 38.6539 22.3695 38.8828C22.8529 36.0103 23.8501 33.3076 25.2778 30.8634C22.9511 28.7145 21.0475 26.1299 19.7105 23.2352Z" fill="#659A00"/>
<path id="Vector_6" d="M41.8891 21.0422C43.4754 20.6951 45.1298 20.5105 46.8219 20.5105C47.0334 20.5105 47.2373 20.5105 47.4413 20.5253L55.2824 28.1903C56.3475 29.2315 56.204 30.9816 54.9575 31.8087C51.3316 34.1939 46.9654 35.5821 42.2895 35.5821C36.8053 35.5821 31.7592 33.6769 27.816 30.5016C29.5836 27.9023 31.8876 25.687 34.5844 24.0181C35.3096 24.8673 36.3973 25.4211 37.6135 25.4655C38.7617 25.5024 39.8495 24.9633 40.62 24.1289C41.5945 23.0581 42.0175 22.0538 41.8891 21.0422Z" fill="#375400"/>
</g>
</g>
</g>
<defs>
<clipPath id="clip0_12_178">
<rect width="50" height="50" fill="white" transform="translate(6 6)"/>
</clipPath>
</defs>
</svg>
