<svg width="200" height="56" viewBox="0 0 200 56" fill="none" xmlns="http://www.w3.org/2000/svg">
<g id="Group 415">
<path id="Rectangle 168" d="M0 12C0 5.37258 5.37258 0 12 0H200V44C200 50.6274 194.627 56 188 56H0V12Z" fill="url(#paint0_linear_10_423)"/>
<path id="Opening Soon" d="M36.12 34.512L33.336 36.12H25.824L23.04 34.512V20.688L25.824 19.08H33.336L36.12 20.688V34.512ZM26.4 21.96V33.24H32.76V21.96H26.4ZM48.0923 36.12H44.9483L43.2443 35.136V40.8H39.9563V23.88H42.6683L43.2443 24.864L44.9483 23.88H48.0923L50.8763 25.488V34.512L48.0923 36.12ZM43.2443 26.688V33.312H47.5883V26.688H43.2443ZM64.4475 33.192V36H57.2715L54.4875 34.392V25.488L57.2715 23.88H61.6635L64.4475 25.488V31.224H57.7755V33.192H64.4475ZM57.7755 26.688V28.752H61.1595V26.688H57.7755ZM78.7378 25.488V36H75.4498V26.688H71.3458V36H68.0578V23.88H70.7698L71.3458 24.864L73.0498 23.88H75.9538L78.7378 25.488ZM85.6193 24V36H82.3313V24H85.6193ZM82.2113 21.768V18.48H85.7393V21.768H82.2113ZM99.9019 25.488V36H96.6139V26.688H92.5099V36H89.2219V23.88H91.9339L92.5099 24.864L94.2139 23.88H97.1179L99.9019 25.488ZM103.015 39.312V37.632L105.799 36L103.495 34.656V32.496L105.199 31.512L103.495 30.528V25.608L106.279 24H114.415V25.536L112.231 26.808L113.695 27.672V30.264L110.911 31.872H106.783V33.432H111.631L114.415 35.04V39.312L111.631 40.92H105.799L103.015 39.312ZM111.127 36H106.303V38.16H111.127V36ZM106.783 26.688V29.184H110.407V26.688H106.783ZM124.009 27.48V20.688L126.793 19.08H132.865L135.649 20.688V23.88H132.289V21.96H127.369V25.968H132.865L135.649 27.576V34.512L132.865 36.12H126.553L123.769 34.512V31.32H127.129V33.24H132.289V29.088H126.793L124.009 27.48ZM150.175 34.512L147.391 36.12H142.279L139.495 34.512V25.488L142.279 23.88H147.391L150.175 25.488V34.512ZM142.783 26.688V33.312H146.887V26.688H142.783ZM164.449 34.512L161.665 36.12H156.553L153.769 34.512V25.488L156.553 23.88H161.665L164.449 25.488V34.512ZM157.057 26.688V33.312H161.161V26.688H157.057ZM178.722 25.488V36H175.434V26.688H171.33V36H168.042V23.88H170.754L171.33 24.864L173.034 23.88H175.938L178.722 25.488Z" fill="white"/>
</g>
<defs>
<linearGradient id="paint0_linear_10_423" x1="3.9801" y1="2.64619e-05" x2="200.068" y2="37.1407" gradientUnits="userSpaceOnUse">
<stop stop-color="#34B2DA"/>
<stop offset="1" stop-color="#87CD00"/>
</linearGradient>
</defs>
</svg>
