<svg width="346" height="64" viewBox="0 0 346 64" fill="none" xmlns="http://www.w3.org/2000/svg">
<g id="Frame 277">
<g id="Frame" clip-path="url(#clip0_10_451)">
<g id="Group">
<path id="Vector" d="M19.2029 11.9759L30.5545 0.888573C31.7631 -0.292936 33.726 -0.292936 34.9346 0.888573L50.5599 16.1631C48.7035 16.2576 46.8857 16.5129 45.1259 16.9004C44.1783 15.4637 42.5346 14.509 40.6491 14.509C39.2181 14.509 37.903 15.199 36.9168 16.2104C35.2827 17.8929 35.157 19.4335 35.4568 20.8419C31.7245 23.1199 28.5143 26.1351 26.039 29.689C23.5541 27.326 21.5042 24.5282 20.0151 21.4185C21.6492 20.5394 22.7612 18.8381 22.7612 16.872C22.7612 14.6035 21.2721 12.6753 19.2029 11.9759Z" fill="#87CD00"/>
<path id="Vector_2" d="M20.5373 47.1187C20.5373 46.2491 20.5759 45.3984 20.6533 44.5477C18.9805 44.2452 17.2594 44.094 15.5093 44.094C14.1073 44.094 12.7343 44.1885 11.3903 44.387L21.3495 54.1132C20.8177 51.8636 20.5373 49.5195 20.5373 47.1187Z" fill="#375400"/>
<path id="Vector_3" d="M46.4505 40.3131C38.9473 40.3131 32.0435 37.7516 26.6095 33.4792C25.0431 36.2676 23.9504 39.349 23.4186 42.61C26.9866 43.5079 30.3224 45.0108 33.2908 46.9863C34.4318 46.0032 36.0272 45.4928 37.7096 45.7764C40.0399 46.1639 41.8673 48.1111 42.0704 50.4174C42.1961 51.8352 41.7513 53.1396 40.9294 54.1415C41.3839 54.737 41.8093 55.3419 42.2251 55.9657L62.7914 35.8612C58.0245 38.6873 52.426 40.3131 46.4505 40.3131Z" fill="#659A00"/>
<path id="Vector_4" d="M36.2013 56.0697C35.4181 55.9847 34.6542 55.7011 33.9967 55.2663C31.415 53.5933 31.0476 50.9278 31.8502 48.9901C29.2201 47.251 26.2904 45.9182 23.1479 45.0864C23.0899 45.7575 23.0609 46.4381 23.0609 47.1186C23.0609 50.9278 23.8344 54.5763 25.2365 57.9034L30.5545 63.1021C31.7631 64.2836 33.726 64.2836 34.9346 63.1021L40.4073 57.7522C39.9626 57.0244 39.4694 56.3249 38.9473 55.6444C38.1254 56.013 37.1875 56.1737 36.2013 56.0697Z" fill="#87CD00"/>
<path id="Vector_5" d="M17.5494 22.0612C17.5108 22.0706 17.4818 22.0706 17.4431 22.0706C15.1225 22.0706 13.15 20.615 12.4248 18.5923L0.908862 29.8592C-0.29978 31.0407 -0.29978 32.9594 0.908862 34.1409L9.21465 42.2508C11.2452 41.8444 13.353 41.6364 15.5093 41.6364C17.3657 41.6364 19.1835 41.7971 20.953 42.0901C21.5718 38.4133 22.8481 34.9538 24.6756 31.8252C21.6975 29.0746 19.2609 25.7664 17.5494 22.0612Z" fill="#659A00"/>
<path id="Vector_6" d="M45.9381 19.254C47.9686 18.8098 50.0862 18.5735 52.252 18.5735C52.5228 18.5735 52.7838 18.5735 53.0449 18.5924L63.0815 28.4036C64.4448 29.7364 64.2611 31.9765 62.6657 33.0352C58.0245 36.0882 52.4358 37.8652 46.4506 37.8652C39.4308 37.8652 32.9718 35.4265 27.9245 31.3621C30.1871 28.035 33.1362 25.1994 36.588 23.0632C37.5163 24.1502 38.9086 24.8591 40.4654 24.9158C41.9351 24.9631 43.3274 24.2731 44.3137 23.205C45.561 21.8345 46.1025 20.549 45.9381 19.254Z" fill="#375400"/>
</g>
</g>
<g id="Group 419">
<g id="Group 417">
<path id="Vector_7" d="M256.39 28.021H241.195V36.2354H256.39V28.021Z" fill="url(#paint0_linear_10_451)"/>
<g id="Group_2">
<path id="Vector_8" d="M237.259 38.179C233.885 38.179 231.141 35.4527 231.141 32.1026C231.141 28.7524 233.885 26.0239 237.259 26.0239C240.633 26.0239 243.377 28.7502 243.377 32.1026C243.377 35.4549 240.631 38.179 237.259 38.179ZM237.259 29.3541C235.733 29.3541 234.493 30.5862 234.493 32.1026C234.493 33.6189 235.733 34.8511 237.259 34.8511C238.785 34.8511 240.025 33.6189 240.025 32.1026C240.025 30.5862 238.783 29.3541 237.259 29.3541Z" fill="#87CD00"/>
</g>
<path id="Vector_9" d="M255.944 30.0186H240.749V34.0147H255.944V30.0186Z" fill="url(#paint1_linear_10_451)"/>
<path id="Vector_10" d="M245.836 23.83C245.834 23.8078 245.832 23.7856 245.832 23.7634V23.7478C245.832 23.4969 245.973 23.2772 246.18 23.1639C246.276 23.1106 246.386 23.0818 246.502 23.0818C246.567 23.0818 246.629 23.0907 246.688 23.1084H246.69C246.931 23.1795 247.119 23.3837 247.161 23.6346C247.164 23.6501 247.166 23.6657 247.168 23.6812C247.17 23.7034 247.172 23.7256 247.172 23.7478C247.172 24.0165 247.012 24.2473 246.779 24.3517C246.694 24.3916 246.6 24.4138 246.502 24.4138C246.446 24.4138 246.395 24.4072 246.343 24.3939C246.078 24.3317 245.872 24.1075 245.836 23.8322V23.83Z" fill="white"/>
<path id="Vector_11" d="M244.829 36.1781C243.361 38.951 240.434 40.8403 237.062 40.8403C232.218 40.8403 228.291 36.9396 228.291 32.1264C228.291 27.3132 232.218 23.4125 237.062 23.4125C240.389 23.4125 243.283 25.253 244.769 27.9637H252.482C250.643 21.2168 244.436 16.2527 237.062 16.2527C228.238 16.2527 221.085 23.3592 221.085 32.1264C221.085 40.8936 228.238 48.0002 237.062 48.0002C244.476 48.0002 250.71 42.9827 252.514 36.1781H244.829ZM246.503 41.9504C246.387 41.9504 246.273 41.9371 246.163 41.9126C246.096 41.8971 246.029 41.8771 245.964 41.8527C243.611 43.9818 240.485 45.2805 237.062 45.2805C229.762 45.2805 223.822 39.3795 223.822 32.1264C223.822 24.8733 229.762 18.9723 237.062 18.9723C240.445 18.9723 243.535 20.2378 245.877 22.3224C246.069 22.2381 246.279 22.1915 246.503 22.1915C246.552 22.1915 246.599 22.1937 246.646 22.2003C247.044 22.2336 247.397 22.4179 247.651 22.6932C247.761 22.8086 247.848 22.9374 247.915 23.0795C248.013 23.2815 248.067 23.508 248.067 23.7455C248.067 24.6025 247.365 25.2996 246.503 25.2996C246.387 25.2996 246.273 25.2863 246.163 25.2619C245.781 25.1775 245.45 24.9533 245.229 24.6469C245.046 24.3916 244.939 24.0808 244.939 23.7455C244.939 23.5169 244.988 23.2993 245.079 23.1039C242.941 21.2235 240.132 20.0824 237.062 20.0824C230.379 20.0824 224.94 25.4861 224.94 32.1264C224.94 38.7668 230.379 44.1705 237.062 44.1705C240.152 44.1705 242.977 43.0138 245.12 41.1178C245.003 40.9025 244.939 40.6561 244.939 40.3963C244.939 40.1588 244.992 39.9323 245.091 39.7303C245.341 39.2063 245.879 38.8422 246.503 38.8422C246.552 38.8422 246.599 38.8445 246.646 38.8511C247.044 38.8844 247.397 39.0687 247.651 39.344C247.761 39.4594 247.848 39.5882 247.915 39.7303C248.013 39.9323 248.067 40.1588 248.067 40.3963C248.067 41.2533 247.365 41.9504 246.503 41.9504ZM246.503 39.7303C246.485 39.7303 246.469 39.7303 246.454 39.7325C246.355 39.7392 246.264 39.7658 246.181 39.8124C245.973 39.9256 245.832 40.1454 245.832 40.3963V40.4118C245.832 40.4185 245.832 40.4229 245.835 40.4296C245.85 40.7804 246.145 41.0623 246.503 41.0623C246.601 41.0623 246.695 41.0401 246.78 41.0002C246.813 40.9846 246.847 40.9669 246.878 40.9447C246.974 40.8803 247.053 40.7937 247.104 40.6894L247.106 40.6871C247.149 40.5983 247.173 40.5007 247.173 40.3963C247.173 40.3741 247.171 40.3519 247.169 40.3297C247.135 39.9945 246.849 39.7303 246.503 39.7303Z" fill="#87CD00"/>
</g>
<path id="Vector_12" d="M110.491 30.4261C112.158 31.258 113.488 32.3807 114.466 33.7875C115.445 35.2011 115.938 36.7499 115.938 38.4408C115.938 40.1316 115.445 41.6804 114.466 43.094C113.488 44.5075 112.158 45.6303 110.491 46.4554C108.824 47.2805 107.009 47.6999 105.045 47.6999H81.5252V42.722H102.102C103.52 42.722 104.728 42.3094 105.727 41.4775C106.725 40.6456 107.225 39.6379 107.225 38.434C107.225 37.2301 106.725 36.2224 105.727 35.3905C104.728 34.5586 103.52 34.146 102.102 34.146H90.7239C88.7667 34.146 86.9648 33.7402 85.3316 32.9218C83.6984 32.1102 82.4026 31.001 81.4375 29.601C80.4792 28.2212 80 26.713 80 25.083C80 23.426 80.4792 21.9042 81.4443 20.5245C82.4026 19.138 83.7051 18.0423 85.3383 17.2239C86.9715 16.4123 88.7667 15.9998 90.7307 15.9998H113.758V20.9303H93.6124C92.2694 20.9303 91.1153 21.3361 90.157 22.1545C89.1919 22.9661 88.7127 23.9468 88.7127 25.083C88.7127 26.2193 89.1919 27.1864 90.157 27.9845C91.1153 28.7826 92.2694 29.1816 93.6124 29.1816H105.045C107.002 29.1816 108.818 29.601 110.491 30.4261Z" fill="#87CD00"/>
<path id="Vector_13" d="M129.054 47.7472H120.342V15.9998H129.054V47.7472Z" fill="#87CD00"/>
<path id="Vector_14" d="M166.401 15.9998H175.168V47.7472H166.401V27.1053L159.16 36.4117H150.501L142.882 26.8753V47.7472H134.115V15.9998H142.882L154.807 30.886L166.401 15.9998Z" fill="#87CD00"/>
<path id="Vector_15" d="M207.067 15.9998H215.834V47.7067H207.067V34.2948H188.609V47.7067H179.897V15.9998H188.609V29.3643H207.067V15.9998Z" fill="#87CD00"/>
<path id="Vector_16" d="M261.836 19.5911C262.598 18.4887 263.631 17.6094 264.94 16.9669C266.249 16.3244 267.66 15.9998 269.185 15.9998H288.075C289.634 15.9998 291.072 16.3244 292.374 16.9669C293.683 17.6094 294.716 18.4887 295.479 19.5911C296.241 20.7003 296.619 21.8975 296.619 23.1825V40.463C296.619 41.7548 296.234 42.9587 295.479 44.0814C294.716 45.2042 293.683 46.0834 292.374 46.7327C291.065 47.3752 289.634 47.6999 288.075 47.6999H269.185C267.66 47.6999 266.243 47.3685 264.94 46.7124C263.631 46.0496 262.598 45.1704 261.836 44.0612C261.073 42.9587 260.695 41.7548 260.695 40.4698V23.1893C260.688 21.8975 261.073 20.7003 261.836 19.5911ZM286.577 41.6399C287.427 40.9162 287.859 40.0505 287.859 39.0359V24.6637C287.859 23.6221 287.434 22.7361 286.577 22.0124C285.727 21.2887 284.701 20.9303 283.499 20.9303H273.815C272.58 20.9303 271.534 21.2955 270.683 22.0124C269.833 22.7361 269.401 23.6154 269.401 24.6637V39.0427C269.401 40.0572 269.826 40.9229 270.683 41.6466C271.534 42.3703 272.58 42.7288 273.815 42.7288H283.506C284.701 42.722 285.727 42.3635 286.577 41.6399Z" fill="#87CD00"/>
<path id="Vector_17" d="M331.933 17.3795C333.802 18.2993 335.28 19.5438 336.367 21.1129C337.453 22.682 338 24.3999 338 26.2734C338 28.1468 337.453 29.8783 336.367 31.4609C335.28 33.0436 333.802 34.2948 331.933 35.2146C330.063 36.1344 328.018 36.5943 325.805 36.5943H309.797V47.6999H301.084V15.9998H325.805C328.018 15.9998 330.057 16.4597 331.933 17.3795ZM327.384 30.1015C328.619 29.0599 329.233 27.7816 329.233 26.2734C329.233 24.799 328.612 23.541 327.384 22.4926C326.149 21.4511 324.664 20.9235 322.916 20.9235H309.797V31.6638H322.916C324.658 31.6638 326.149 31.143 327.384 30.1015Z" fill="#87CD00"/>
</g>
</g>
<defs>
<linearGradient id="paint0_linear_10_451" x1="239.614" y1="31.912" x2="256.371" y2="31.6371" gradientUnits="userSpaceOnUse">
<stop stop-color="#87CD00" stop-opacity="0.4"/>
<stop offset="1" stop-color="#87CD00" stop-opacity="0"/>
</linearGradient>
<linearGradient id="paint1_linear_10_451" x1="239.168" y1="31.9115" x2="255.91" y2="31.3468" gradientUnits="userSpaceOnUse">
<stop stop-color="#87CD00"/>
<stop offset="1" stop-color="#87CD00" stop-opacity="0"/>
</linearGradient>
<clipPath id="clip0_10_451">
<rect width="64" height="64" fill="white"/>
</clipPath>
</defs>
</svg>
