<svg width="191" height="36" viewBox="0 0 191 36" fill="none" xmlns="http://www.w3.org/2000/svg">
<g id="Frame 275">
<g id="Group">
<path id="Vector" d="M10.8002 6.73654L17.1854 0.49856C17.8653 -0.166187 18.9694 -0.166187 19.6492 0.49856L28.4385 9.0924C27.3942 9.14558 26.3717 9.28916 25.3818 9.5072C24.8488 8.69887 23.9242 8.16175 22.8636 8.16175C22.0587 8.16175 21.319 8.54997 20.7642 9.11899C19.845 10.0656 19.7743 10.9324 19.9429 11.7248C17.8435 13.0064 16.0378 14.7029 14.6455 16.7024C13.2477 15.3729 12.0946 13.7988 11.257 12.0492C12.1762 11.5546 12.8017 10.5974 12.8017 9.49125C12.8017 8.21493 11.9641 7.13007 10.8002 6.73654Z" fill="white"/>
<path id="Vector_2" d="M11.5508 26.5086C11.5508 26.0194 11.5726 25.5407 11.6161 25.0621C10.6752 24.892 9.70706 24.8069 8.72262 24.8069C7.93398 24.8069 7.16166 24.86 6.40565 24.9717L12.0077 30.4439C11.7086 29.1782 11.5508 27.8594 11.5508 26.5086ZM26.1271 22.6797C21.9065 22.6797 18.0231 21.2385 14.9665 18.8348C14.0854 20.4036 13.4708 22.1372 13.1716 23.9719C15.1786 24.4772 17.055 25.3227 18.7247 26.4342C19.3665 25.8811 20.2639 25.5939 21.2103 25.7535C22.5211 25.9715 23.549 27.067 23.6632 28.3646C23.7339 29.1623 23.4838 29.8962 23.0215 30.4599C23.2771 30.7949 23.5164 31.1353 23.7503 31.4862L35.3188 20.1749C32.6374 21.765 29.4883 22.6797 26.1271 22.6797ZM20.3618 31.5447C19.9213 31.4969 19.4916 31.3373 19.1218 31.0927C17.6696 30.1514 17.4629 28.6518 17.9143 27.5616C16.435 26.5831 14.787 25.8332 13.0193 25.3653C12.9867 25.7428 12.9704 26.1257 12.9704 26.5086C12.9704 28.6518 13.4055 30.7045 14.1941 32.5764L17.1855 35.5013C17.8654 36.1661 18.9695 36.1661 19.6493 35.5013L22.7278 32.4913C22.4776 32.0819 22.2002 31.6883 21.9065 31.3054C21.4442 31.5128 20.9166 31.6032 20.3618 31.5447ZM9.87022 12.4107C9.84847 12.416 9.83215 12.416 9.81039 12.416C8.50506 12.416 7.39553 11.597 6.98761 10.459L0.509896 16.798C-0.169965 17.4628 -0.169965 18.5423 0.509896 19.207L5.1819 23.7699C6.32407 23.5412 7.50975 23.4242 8.72262 23.4242C9.76688 23.4242 10.7894 23.5146 11.7847 23.6795C12.1328 21.6108 12.8507 19.6644 13.8787 17.9041C12.2035 16.3566 10.8329 14.4953 9.87022 12.4107Z" fill="white"/>
<path id="Vector_3" d="M25.8387 10.8311C26.9809 10.5812 28.172 10.4482 29.3903 10.4482C29.5426 10.4482 29.6894 10.4482 29.8363 10.4589L35.4818 15.9789C36.2487 16.7288 36.1454 17.9891 35.248 18.5847C32.6373 20.3024 29.4936 21.3022 26.127 21.3022C22.1783 21.3022 18.5452 19.9302 15.7061 17.6435C16.9788 15.7715 18.6376 14.1761 20.5793 12.9743C21.1014 13.5858 21.8846 13.9847 22.7603 14.0166C23.587 14.0432 24.3702 13.655 24.925 13.054C25.6266 12.2829 25.9312 11.5597 25.8387 10.8311Z" fill="white"/>
</g>
<g id="Group 419">
<g id="Group 417">
<path id="Vector_4" d="M143.923 15.7449H135.315V20.4022H143.923V15.7449Z" fill="url(#paint0_linear_10_391)"/>
<g id="Group_2">
<path id="Vector_5" d="M133.085 21.5034C131.174 21.5034 129.619 19.9577 129.619 18.0583C129.619 16.1588 131.174 14.6118 133.085 14.6118C134.996 14.6118 136.551 16.1576 136.551 18.0583C136.551 19.959 134.995 21.5034 133.085 21.5034ZM133.085 16.4999C132.22 16.4999 131.518 17.1985 131.518 18.0583C131.518 18.918 132.22 19.6166 133.085 19.6166C133.949 19.6166 134.652 18.918 134.652 18.0583C134.652 17.1985 133.948 16.4999 133.085 16.4999Z" fill="white"/>
</g>
<path id="Vector_6" d="M143.67 16.8765H135.062V19.1422H143.67V16.8765Z" fill="url(#paint1_linear_10_391)"/>
<path id="Vector_7" d="M137.944 13.368C137.943 13.3555 137.942 13.3429 137.942 13.3303V13.3215C137.942 13.1792 138.022 13.0546 138.139 12.9904C138.194 12.9602 138.256 12.9438 138.322 12.9438C138.358 12.9438 138.394 12.9489 138.427 12.959H138.428C138.565 12.9992 138.671 13.115 138.695 13.2573C138.696 13.2661 138.698 13.2749 138.699 13.2837C138.7 13.2963 138.701 13.3089 138.701 13.3215C138.701 13.4738 138.61 13.6047 138.479 13.6638C138.43 13.6865 138.377 13.6991 138.322 13.6991C138.29 13.6991 138.261 13.6953 138.232 13.6878C138.081 13.6525 137.965 13.5254 137.944 13.3693V13.368Z" fill="white"/>
<path id="Vector_8" d="M137.373 20.3687C136.542 21.9409 134.883 23.0121 132.973 23.0121C130.229 23.0121 128.005 20.8005 128.005 18.0715C128.005 15.3426 130.229 13.131 132.973 13.131C134.858 13.131 136.497 14.1745 137.339 15.7114H141.709C140.667 11.8861 137.15 9.07153 132.973 9.07153C127.975 9.07153 123.923 13.1008 123.923 18.0715C123.923 23.0423 127.975 27.0715 132.973 27.0715C137.173 27.0715 140.705 24.2268 141.726 20.3687H137.373ZM138.321 23.6415C138.256 23.6415 138.191 23.6339 138.129 23.6201C138.091 23.6113 138.053 23.5999 138.016 23.5861C136.683 24.7932 134.913 25.5296 132.973 25.5296C128.838 25.5296 125.473 22.1838 125.473 18.0715C125.473 13.9592 128.838 10.6135 132.973 10.6135C134.89 10.6135 136.64 11.331 137.967 12.5129C138.076 12.4651 138.195 12.4387 138.321 12.4387C138.349 12.4387 138.376 12.4399 138.402 12.4437C138.628 12.4626 138.828 12.5671 138.972 12.7231C139.034 12.7886 139.083 12.8616 139.121 12.9422C139.177 13.0567 139.207 13.1851 139.207 13.3198C139.207 13.8057 138.81 14.2009 138.321 14.2009C138.256 14.2009 138.191 14.1934 138.129 14.1795C137.912 14.1317 137.725 14.0045 137.6 13.8308C137.496 13.6861 137.435 13.5099 137.435 13.3198C137.435 13.1901 137.463 13.0668 137.515 12.956C136.304 11.8899 134.713 11.2429 132.973 11.2429C129.187 11.2429 126.106 14.3066 126.106 18.0715C126.106 21.8364 129.187 24.9002 132.973 24.9002C134.724 24.9002 136.324 24.2444 137.538 23.1694C137.472 23.0473 137.435 22.9076 137.435 22.7603C137.435 22.6257 137.466 22.4973 137.521 22.3827C137.663 22.0857 137.968 21.8792 138.321 21.8792C138.349 21.8792 138.376 21.8805 138.402 21.8843C138.628 21.9031 138.828 22.0076 138.972 22.1637C139.034 22.2292 139.083 22.3022 139.121 22.3827C139.177 22.4973 139.207 22.6257 139.207 22.7603C139.207 23.2462 138.81 23.6415 138.321 23.6415ZM138.321 22.3827C138.311 22.3827 138.302 22.3827 138.293 22.384C138.238 22.3878 138.186 22.4029 138.139 22.4293C138.021 22.4935 137.942 22.6181 137.942 22.7603V22.7692C137.942 22.7729 137.942 22.7754 137.943 22.7792C137.952 22.9781 138.119 23.138 138.321 23.138C138.377 23.138 138.43 23.1254 138.478 23.1027C138.497 23.0939 138.516 23.0838 138.534 23.0713C138.588 23.0348 138.633 22.9857 138.662 22.9265L138.663 22.9252C138.687 22.8749 138.701 22.8195 138.701 22.7603C138.701 22.7478 138.7 22.7352 138.699 22.7226C138.68 22.5325 138.518 22.3827 138.321 22.3827Z" fill="white"/>
</g>
<path id="Vector_9" d="M61.2682 17.1078C62.2125 17.5795 62.9656 18.2161 63.52 19.0137C64.0743 19.8151 64.3534 20.6933 64.3534 21.6519C64.3534 22.6106 64.0743 23.4888 63.52 24.2902C62.9656 25.0916 62.2125 25.7282 61.2682 26.196C60.3239 26.6639 59.2955 26.9016 58.1829 26.9016H44.8595V24.0793H56.5161C57.3189 24.0793 58.0032 23.8454 58.5691 23.3737C59.1349 22.902 59.4178 22.3307 59.4178 21.6481C59.4178 20.9655 59.1349 20.3942 58.5691 19.9225C58.0032 19.4508 57.3189 19.2169 56.5161 19.2169H50.0704C48.9617 19.2169 47.9409 18.9868 47.0157 18.5228C46.0905 18.0627 45.3565 17.4338 44.8098 16.64C44.2669 15.8577 43.9955 15.0026 43.9955 14.0784C43.9955 13.1389 44.2669 12.2761 44.8136 11.4939C45.3565 10.7078 46.0944 10.0865 47.0195 9.62254C47.9447 9.16238 48.9617 8.92847 50.0742 8.92847H63.1185V11.7239H51.7066C50.9458 11.7239 50.2921 11.954 49.7492 12.418C49.2025 12.8782 48.9311 13.4342 48.9311 14.0784C48.9311 14.7227 49.2025 15.271 49.7492 15.7235C50.2921 16.176 50.9458 16.4023 51.7066 16.4023H58.1829C59.2916 16.4023 60.32 16.64 61.2682 17.1078Z" fill="white"/>
<path id="Vector_10" d="M71.7853 26.9285H66.8497V8.92847H71.7853V26.9285Z" fill="white"/>
<path id="Vector_11" d="M92.9422 8.92847H97.9084V26.9285H92.9422V15.225L88.84 20.5015H83.935L79.6188 15.0946V26.9285H74.6526V8.92847H79.6188L86.3741 17.3686L92.9422 8.92847Z" fill="white"/>
<path id="Vector_12" d="M115.98 8.92847H120.947V26.9055H115.98V19.3013H105.524V26.9055H100.589V8.92847H105.524V16.5058H115.98V8.92847Z" fill="white"/>
<path id="Vector_13" d="M147.008 10.9647C147.44 10.3396 148.025 9.84112 148.767 9.47683C149.509 9.11253 150.308 8.92847 151.172 8.92847H161.873C162.756 8.92847 163.57 9.11253 164.308 9.47683C165.05 9.84112 165.635 10.3396 166.067 10.9647C166.499 11.5936 166.713 12.2723 166.713 13.0009V22.7985C166.713 23.5309 166.495 24.2135 166.067 24.8501C165.635 25.4866 165.05 25.9851 164.308 26.3533C163.566 26.7176 162.756 26.9016 161.873 26.9016H151.172C150.308 26.9016 149.505 26.7137 148.767 26.3418C148.025 25.966 147.44 25.4674 147.008 24.8386C146.576 24.2135 146.362 23.5309 146.362 22.8023V13.0047C146.359 12.2723 146.576 11.5936 147.008 10.9647ZM161.024 23.4657C161.506 23.0554 161.75 22.5646 161.75 21.9894V13.8407C161.75 13.2502 161.509 12.7478 161.024 12.3375C160.542 11.9272 159.961 11.7239 159.281 11.7239H153.794C153.095 11.7239 152.502 11.931 152.021 12.3375C151.539 12.7478 151.294 13.2463 151.294 13.8407V21.9932C151.294 22.5684 151.535 23.0593 152.021 23.4696C152.502 23.8799 153.095 24.0831 153.794 24.0831H159.284C159.961 24.0793 160.542 23.8761 161.024 23.4657Z" fill="white"/>
<path id="Vector_14" d="M186.719 9.71074C187.778 10.2323 188.615 10.9378 189.23 11.8275C189.846 12.7171 190.156 13.6911 190.156 14.7533C190.156 15.8156 189.846 16.7972 189.23 17.6945C188.615 18.5919 187.778 19.3013 186.719 19.8228C185.66 20.3443 184.501 20.6051 183.247 20.6051H174.179V26.9016H169.243V8.92847H183.247C184.501 8.92847 185.656 9.18923 186.719 9.71074ZM184.142 16.9238C184.842 16.3332 185.189 15.6085 185.189 14.7533C185.189 13.9174 184.838 13.2041 184.142 12.6098C183.442 12.0192 182.601 11.7201 181.611 11.7201H174.179V17.8096H181.611C182.597 17.8096 183.442 17.5143 184.142 16.9238Z" fill="white"/>
</g>
</g>
<defs>
<linearGradient id="paint0_linear_10_391" x1="134.42" y1="17.951" x2="143.912" y2="17.7954" gradientUnits="userSpaceOnUse">
<stop stop-color="white" stop-opacity="0.42"/>
<stop offset="1" stop-color="white" stop-opacity="0"/>
</linearGradient>
<linearGradient id="paint1_linear_10_391" x1="134.166" y1="17.9497" x2="143.65" y2="17.6301" gradientUnits="userSpaceOnUse">
<stop stop-color="white"/>
<stop offset="1" stop-color="white" stop-opacity="0"/>
</linearGradient>
</defs>
</svg>
