<svg width="140" height="148" viewBox="0 0 140 148" fill="none" xmlns="http://www.w3.org/2000/svg">
<path d="M33.5317 97.1638L21.0981 75.7308C9.94851 56.5111 16.5891 31.928 35.9408 20.8086C55.2924 9.68913 80.0042 16.2571 91.1538 35.4768L103.587 56.9098L33.5317 97.1638Z" fill="#1A0600" stroke="white"/>
<path d="M95.1479 41.8563L135.62 58.4386C135.35 58.5141 135.062 58.6022 134.758 58.7013C133.577 59.0869 132.083 59.6655 130.316 60.4166C126.78 61.9193 122.119 64.1251 116.614 66.8933C105.602 72.4305 91.1898 80.2295 75.6055 89.1843C60.0212 98.139 46.0289 106.661 35.7044 113.384C30.543 116.745 26.2929 119.659 23.2174 121.955C21.6802 123.103 20.4299 124.101 19.5038 124.926C19.2657 125.139 19.0452 125.343 18.8444 125.538L24.6509 82.3638L95.1479 41.8563Z" fill="#87CD00" stroke="white"/>
<path d="M69.4203 77.118C71.1087 76.1478 71.6886 74.0017 70.7156 72.3245C69.7426 70.6473 67.5852 70.0741 65.8969 71.0442C64.2085 72.0143 63.6286 74.1604 64.6016 75.8377C65.5746 77.5149 67.732 78.0881 69.4203 77.118Z" fill="#F23A00"/>
<mask id="mask0_105_2007" style="mask-type:luminance" maskUnits="userSpaceOnUse" x="64" y="70" width="8" height="8">
<path d="M69.4223 77.118C71.1106 76.1478 71.6905 74.0017 70.7176 72.3245C69.7446 70.6473 67.5872 70.0741 65.8988 71.0442C64.2105 72.0143 63.6306 74.1604 64.6035 75.8377C65.5765 77.5149 67.7339 78.0881 69.4223 77.118Z" fill="white"/>
</mask>
<g mask="url(#mask0_105_2007)">
<path d="M68.018 76.9199C69.7063 75.9498 70.2862 73.8037 69.3133 72.1265C68.3403 70.4493 66.1829 69.876 64.4945 70.8462C62.8062 71.8163 62.2263 73.9624 63.1992 75.6396C64.1722 77.3168 66.3296 77.89 68.018 76.9199Z" fill="#0039CD"/>
</g>
<path d="M99.8981 89.9697L99.8978 89.9695C99.0163 89.5516 98.2572 89.3572 97.6505 89.5102C96.9596 89.6843 96.6396 90.2481 96.531 90.8739C96.4256 91.4815 96.4922 92.2503 96.6408 93.0881C96.7912 93.9367 97.0356 94.9067 97.3191 95.9365C97.4977 96.5854 97.6915 97.2575 97.889 97.9425C98.3239 99.4506 98.7767 101.021 99.1245 102.542C99.6326 104.764 99.8866 106.768 99.5649 108.206L99.5648 108.206C99.4976 108.507 99.4139 108.645 99.3617 108.7C99.3323 108.731 99.3146 108.74 99.2592 108.734C99.1742 108.725 99.0253 108.675 98.8024 108.527C98.5859 108.384 98.3342 108.174 98.049 107.896C96.8952 106.772 95.4035 104.764 93.7684 102.554L93.6994 102.46C92.1002 100.299 90.3815 97.9756 88.7766 96.2343C87.9631 95.3517 87.1598 94.5972 86.3983 94.0863C85.651 93.5849 84.8573 93.2596 84.0949 93.3932L84.0946 93.3933C83.5266 93.4933 83.1414 93.8457 82.9506 94.3555C82.7748 94.8253 82.7672 95.4131 82.8491 96.0479C83.0141 97.3275 83.5793 99.0482 84.3692 101.019C85.6081 104.11 87.4476 107.928 89.3285 111.833C89.853 112.922 90.3808 114.018 90.8996 115.106C93.2912 120.123 95.4879 124.974 96.3812 128.409C96.6034 129.264 96.7407 130.016 96.7829 130.65C96.8254 131.29 96.7686 131.775 96.6335 132.12C96.5054 132.446 96.3094 132.644 96.0304 132.75C95.7302 132.865 95.2773 132.894 94.6123 132.751C91.9292 132.17 89.194 129.841 86.5129 126.561C83.8479 123.301 81.3095 119.194 78.9969 115.205C78.1994 113.83 77.4271 112.466 76.686 111.157C75.2886 108.688 74.0022 106.416 72.8671 104.635C71.9994 103.274 71.1948 102.158 70.4712 101.448C70.1108 101.095 69.7394 100.81 69.3605 100.66C68.9638 100.502 68.5353 100.485 68.1387 100.713C67.056 101.335 66.4555 102.31 66.2129 103.488C65.9742 104.648 66.0787 106.01 66.3849 107.466C66.9971 110.379 68.4565 113.846 69.924 117.182C70.1178 117.623 70.3118 118.061 70.5041 118.495C71.7802 121.379 72.9843 124.1 73.614 126.279C73.9777 127.537 74.1285 128.548 74.0271 129.275C73.9775 129.63 73.8709 129.893 73.7216 130.084C73.5759 130.27 73.3664 130.417 73.0545 130.508L73.0537 130.509C72.165 130.77 71.1531 130.624 70.0218 130.095C68.889 129.565 67.677 128.668 66.425 127.495C63.9218 125.151 61.3378 121.779 58.9972 118.305C56.6601 114.836 54.5812 111.287 53.0857 108.604C52.3382 107.263 51.7372 106.14 51.3232 105.352C51.1458 105.014 51.0028 104.738 50.8974 104.533L102.57 74.8422C102.71 75.0886 102.905 75.4351 103.145 75.8695C103.664 76.8055 104.395 78.1494 105.243 79.7792C106.939 83.0399 109.102 87.4393 110.971 92.0026C112.843 96.5733 114.407 101.277 114.927 105.155C115.187 107.095 115.18 108.794 114.843 110.153C114.507 111.503 113.854 112.491 112.829 113.08C111.942 113.59 111.281 113.647 110.761 113.473C110.223 113.292 109.719 112.824 109.24 112.035C108.273 110.444 107.579 107.847 106.865 104.89C106.776 104.524 106.688 104.154 106.599 103.781C105.975 101.172 105.314 98.4034 104.414 96.0234C103.394 93.323 102.017 90.9755 99.8981 89.9697Z" fill="#FF9106" stroke="white"/>
<path d="M102.66 116.751C102.649 116.595 102.641 116.467 102.635 116.37C102.726 116.29 102.812 116.242 102.889 116.214C103.001 116.174 103.126 116.166 103.276 116.2C103.595 116.272 104.003 116.531 104.469 117.015C105.39 117.973 106.346 119.607 107.085 121.412C107.823 123.214 108.317 125.119 108.36 126.596C108.382 127.338 108.288 127.925 108.094 128.331C107.911 128.713 107.646 128.929 107.261 128.997L107.26 128.997C106.447 129.139 105.72 128.653 105.048 127.496C104.385 126.354 103.887 124.728 103.521 123.029C103.157 121.34 102.932 119.622 102.798 118.322C102.731 117.673 102.687 117.13 102.66 116.751Z" fill="#FF9106" stroke="white"/>
<path d="M115.384 64.024L115.066 63.8911C115.236 63.902 115.336 63.9425 115.384 64.024Z" fill="#1A0600"/>
<path d="M137.357 59.1367C137.356 59.1379 137.356 59.139 137.355 59.1402C137.252 59.3258 137.051 59.5857 136.731 59.923C136.096 60.5918 135.075 61.4791 133.691 62.564C130.928 64.7295 126.782 67.6343 121.555 71.0767C111.106 77.9593 96.3721 86.969 79.8323 96.4728C63.2924 105.977 48.0857 114.171 36.8718 119.736C31.2631 122.519 26.6624 124.64 23.3966 125.939C21.7605 126.59 20.4777 127.026 19.5783 127.239C19.1247 127.346 18.7982 127.389 18.5851 127.385C18.5838 127.385 18.5824 127.385 18.5811 127.385C18.5817 127.384 18.5824 127.383 18.583 127.382C18.6862 127.196 18.8869 126.936 19.2071 126.599C19.842 125.93 20.8633 125.043 22.2475 123.958C25.0104 121.793 29.1565 118.888 34.3829 115.445C44.8324 108.563 59.566 99.5531 76.1059 90.0493C92.6458 80.5455 107.852 72.3514 119.066 66.7863C124.675 64.0029 129.276 61.8817 132.542 60.5831C134.178 59.9325 135.46 59.4959 136.36 59.2831C136.813 59.1758 137.14 59.1328 137.353 59.1366C137.354 59.1366 137.356 59.1367 137.357 59.1367ZM18.4112 127.364C18.4113 127.364 18.4127 127.365 18.4151 127.366C18.4123 127.365 18.4111 127.364 18.4112 127.364ZM18.5145 127.542C18.5144 127.542 18.5145 127.541 18.515 127.538C18.5149 127.541 18.5146 127.542 18.5145 127.542ZM137.523 59.1562C137.526 59.1572 137.527 59.1578 137.527 59.1578C137.527 59.1579 137.525 59.1574 137.523 59.1562ZM137.423 58.9837C137.423 58.9811 137.424 58.9798 137.424 58.9797C137.424 58.9797 137.424 58.9809 137.423 58.9837Z" fill="#1A0600" stroke="white"/>
<path d="M137.887 58.8325L137.414 58.6348C137.668 58.6508 137.817 58.711 137.887 58.8325Z" fill="#1A0600"/>
<path d="M42.516 92.5757C44.2044 91.6056 44.7843 89.4595 43.8113 87.7823C42.8383 86.105 40.6809 85.5318 38.9926 86.502C37.3042 87.4721 36.7243 89.6182 37.6973 91.2954C38.6703 92.9726 40.8277 93.5458 42.516 92.5757Z" fill="#F23A00"/>
<mask id="mask1_105_2007" style="mask-type:luminance" maskUnits="userSpaceOnUse" x="37" y="86" width="8" height="8">
<path d="M42.516 92.5757C44.2044 91.6056 44.7843 89.4595 43.8113 87.7823C42.8383 86.1051 40.6809 85.5319 38.9926 86.502C37.3042 87.4721 36.7243 89.6182 37.6973 91.2954C38.6703 92.9726 40.8277 93.5458 42.516 92.5757Z" fill="white"/>
</mask>
<g mask="url(#mask1_105_2007)">
<path d="M41.1137 92.3776C42.802 91.4075 43.3819 89.2614 42.409 87.5842C41.436 85.907 39.2786 85.3338 37.5902 86.3039C35.9019 87.274 35.322 89.4201 36.2949 91.0973C37.2679 92.7745 39.4253 93.3478 41.1137 92.3776Z" fill="#0039CD"/>
</g>
<path d="M55.9691 84.8468C57.6575 83.8767 58.2374 81.7306 57.2644 80.0534C56.2915 78.3762 54.134 77.803 52.4457 78.7731C50.7573 79.7432 50.1774 81.8893 51.1504 83.5665C52.1234 85.2438 54.2808 85.817 55.9691 84.8468Z" fill="#F23A00"/>
<mask id="mask2_105_2007" style="mask-type:luminance" maskUnits="userSpaceOnUse" x="50" y="78" width="8" height="8">
<path d="M55.9731 84.8468C57.6614 83.8767 58.2413 81.7306 57.2683 80.0534C56.2954 78.3762 54.1379 77.803 52.4496 78.7731C50.7613 79.7432 50.1813 81.8893 51.1543 83.5665C52.1273 85.2437 54.2847 85.817 55.9731 84.8468Z" fill="white"/>
</mask>
<g mask="url(#mask2_105_2007)">
<path d="M54.5688 84.6488C56.2571 83.6786 56.837 81.5326 55.864 79.8553C54.8911 78.1781 52.7336 77.6049 51.0453 78.575C49.357 79.5451 48.777 81.6912 49.75 83.3685C50.723 85.0457 52.8804 85.6189 54.5688 84.6488Z" fill="#0039CD"/>
</g>
<path d="M82.8734 69.3891C84.5618 68.419 85.1417 66.2729 84.1687 64.5957C83.1958 62.9185 81.0383 62.3452 79.35 63.3154C77.6616 64.2855 77.0817 66.4316 78.0547 68.1088C79.0277 69.786 81.1851 70.3592 82.8734 69.3891Z" fill="#F23A00"/>
<mask id="mask3_105_2007" style="mask-type:luminance" maskUnits="userSpaceOnUse" x="77" y="62" width="8" height="8">
<path d="M82.8774 69.3891C84.5657 68.419 85.1456 66.2729 84.1726 64.5957C83.1997 62.9185 81.0422 62.3453 79.3539 63.3154C77.6655 64.2855 77.0856 66.4316 78.0586 68.1088C79.0316 69.786 81.189 70.3593 82.8774 69.3891Z" fill="white"/>
</mask>
<g mask="url(#mask3_105_2007)">
<path d="M81.4711 69.191C83.1594 68.2209 83.7394 66.0748 82.7664 64.3976C81.7934 62.7204 79.636 62.1472 77.9476 63.1173C76.2593 64.0874 75.6794 66.2335 76.6524 67.9107C77.6253 69.5879 79.7828 70.1611 81.4711 69.191Z" fill="#0039CD"/>
</g>
<path d="M96.3207 61.6602C98.0091 60.6901 98.589 58.544 97.616 56.8668C96.643 55.1896 94.4856 54.6164 92.7972 55.5865C91.1089 56.5566 90.529 58.7027 91.502 60.3799C92.4749 62.0571 94.6324 62.6304 96.3207 61.6602Z" fill="#F23A00"/>
<mask id="mask4_105_2007" style="mask-type:luminance" maskUnits="userSpaceOnUse" x="91" y="55" width="8" height="8">
<path d="M96.3129 61.6603C98.0012 60.6901 98.5812 58.544 97.6082 56.8668C96.6352 55.1896 94.4778 54.6164 92.7894 55.5865C91.1011 56.5566 90.5212 58.7027 91.4942 60.38C92.4671 62.0572 94.6246 62.6304 96.3129 61.6603Z" fill="white"/>
</mask>
<g mask="url(#mask4_105_2007)">
<path d="M94.9125 61.4622C96.6009 60.492 97.1808 58.346 96.2078 56.6687C95.2348 54.9915 93.0774 54.4183 91.389 55.3884C89.7007 56.3586 89.1208 58.5046 90.0938 60.1819C91.0667 61.8591 93.2242 62.4323 94.9125 61.4622Z" fill="#0039CD"/>
</g>
<path d="M45.8234 63.1422C44.4783 63.9151 42.7436 63.4542 41.9684 62.118L32.1027 45.1115C31.3276 43.7752 31.7939 42.0496 33.139 41.2767C34.4841 40.5038 36.2188 40.9648 36.994 42.301L46.8597 59.3075C47.6348 60.6437 47.1685 62.3693 45.8234 63.1422Z" fill="#F23A00"/>
<mask id="mask5_105_2007" style="mask-type:luminance" maskUnits="userSpaceOnUse" x="31" y="40" width="17" height="24">
<path d="M45.8254 63.1422C44.4803 63.9151 42.7456 63.4542 41.9704 62.118L32.1047 45.1115C31.3295 43.7753 31.7958 42.0496 33.1409 41.2768C34.486 40.5039 36.2208 40.9648 36.9959 42.301L46.8616 59.3075C47.6368 60.6437 47.1705 62.3693 45.8254 63.1422Z" fill="white"/>
</mask>
<g mask="url(#mask5_105_2007)">
<path d="M47.7531 63.6543C46.408 64.4272 44.6733 63.9663 43.8981 62.6301L34.0324 45.6236C33.2573 44.2874 33.7236 42.5617 35.0687 41.7888C36.4137 41.016 38.1485 41.4769 38.9237 42.8131L48.7893 59.8196C49.5645 61.1558 49.0982 62.8814 47.7531 63.6543Z" fill="#FF9106"/>
</g>
<path d="M56.8273 56.8186C55.4823 57.5915 53.7475 57.1306 52.9723 55.7944L43.1067 38.7879C42.3315 37.4517 42.7978 35.726 44.1429 34.9531C45.488 34.1803 47.2227 34.6412 47.9979 35.9774L57.8636 52.9839C58.6387 54.3201 58.1724 56.0457 56.8273 56.8186Z" fill="#F23A00"/>
<mask id="mask6_105_2007" style="mask-type:luminance" maskUnits="userSpaceOnUse" x="42" y="34" width="17" height="24">
<path d="M56.8254 56.8186C55.4803 57.5914 53.7456 57.1305 52.9704 55.7943L43.1047 38.7878C42.3295 37.4516 42.7958 35.726 44.1409 34.9531C45.486 34.1802 47.2208 34.6411 47.9959 35.9773L57.8616 52.9838C58.6368 54.32 58.1705 56.0457 56.8254 56.8186Z" fill="white"/>
</mask>
<g mask="url(#mask6_105_2007)">
<path d="M58.7551 57.3307C57.41 58.1036 55.6752 57.6427 54.9001 56.3065L45.0344 39.3C44.2592 37.9638 44.7255 36.2381 46.0706 35.4652C47.4157 34.6923 49.1504 35.1533 49.9256 36.4895L59.7913 53.496C60.5665 54.8322 60.1002 56.5578 58.7551 57.3307Z" fill="#FF9106"/>
</g>
<path d="M67.8371 50.4949C66.492 51.2678 64.7573 50.8069 63.9821 49.4707L54.1164 32.4642C53.3413 31.128 53.8076 29.4023 55.1526 28.6294C56.4977 27.8566 58.2325 28.3175 59.0076 29.6537L68.8733 46.6602C69.6485 47.9964 69.1822 49.722 67.8371 50.4949Z" fill="#F23A00"/>
<mask id="mask7_105_2007" style="mask-type:luminance" maskUnits="userSpaceOnUse" x="53" y="28" width="17" height="23">
<path d="M67.8391 50.4949C66.494 51.2678 64.7592 50.8069 63.9841 49.4706L54.1184 32.4642C53.3432 31.1279 53.8095 29.4023 55.1546 28.6294C56.4997 27.8565 58.2344 28.3174 59.0096 29.6537L68.8753 46.6601C69.6504 47.9964 69.1841 49.722 67.8391 50.4949Z" fill="white"/>
</mask>
<g mask="url(#mask7_105_2007)">
<path d="M69.7668 51.007C68.4217 51.7799 66.687 51.319 65.9118 49.9828L56.0461 32.9763C55.2709 31.6401 55.7372 29.9145 57.0823 29.1416C58.4274 28.3687 60.1622 28.8296 60.9373 30.1658L70.803 47.1723C71.5782 48.5085 71.1119 50.2342 69.7668 51.007Z" fill="#FF9106"/>
</g>
</svg>
