<svg width="32" height="24" viewBox="0 0 32 24" fill="none" xmlns="http://www.w3.org/2000/svg">
<mask id="mask0_880_4821" style="mask-type:alpha" maskUnits="userSpaceOnUse" x="0" y="0" width="32" height="24">
<rect width="32" height="24" fill="#D9D9D9"/>
</mask>
<g mask="url(#mask0_880_4821)">
<path d="M22.5352 5.52381H19.5714V4.7619C19.5714 4.34286 19.2286 4 18.8095 4C18.3905 4 18.0476 4.34286 18.0476 4.7619V5.52381H13.4762V4.7619C13.4762 4.34286 13.1333 4 12.7143 4C12.2952 4 11.9524 4.34286 11.9524 4.7619V5.52381H8.98857C7.89143 5.52381 7 6.41524 7 7.51238V18.0114C7 19.1086 7.89143 20 8.98857 20H22.5352C23.6324 20 24.5238 19.1086 24.5238 18.0114V7.51238C24.5238 6.41524 23.6324 5.52381 22.5352 5.52381ZM11.7619 17.2648C11.7619 17.5162 11.5638 17.7143 11.3124 17.7143H9.92571C9.67429 17.7143 9.47619 17.5162 9.47619 17.2648V15.8781C9.47619 15.6267 9.67429 15.4286 9.92571 15.4286H11.3124C11.5638 15.4286 11.7619 15.6267 11.7619 15.8781V17.2648ZM11.7619 13.4552C11.7619 13.7067 11.5638 13.9048 11.3124 13.9048H9.92571C9.67429 13.9048 9.47619 13.7067 9.47619 13.4552V12.0686C9.47619 11.8171 9.67429 11.619 9.92571 11.619H11.3124C11.5638 11.619 11.7619 11.8171 11.7619 12.0686V13.4552ZM17.0952 17.2648C17.0952 17.5162 16.8971 17.7143 16.6457 17.7143H15.259C15.0076 17.7143 14.8095 17.5162 14.8095 17.2648V15.8781C14.8095 15.6267 15.0076 15.4286 15.259 15.4286H16.6457C16.8971 15.4286 17.0952 15.6267 17.0952 15.8781V17.2648ZM17.0952 13.4552C17.0952 13.7067 16.8971 13.9048 16.6457 13.9048H15.259C15.0076 13.9048 14.8095 13.7067 14.8095 13.4552V12.0686C14.8095 11.8171 15.0076 11.619 15.259 11.619H16.6457C16.8971 11.619 17.0952 11.8171 17.0952 12.0686V13.4552ZM22.4286 17.2648C22.4286 17.5162 22.2305 17.7143 21.979 17.7143H20.5924C20.341 17.7143 20.1429 17.5162 20.1429 17.2648V15.8781C20.1429 15.6267 20.341 15.4286 20.5924 15.4286H21.979C22.2305 15.4286 22.4286 15.6267 22.4286 15.8781V17.2648ZM22.4286 13.4552C22.4286 13.7067 22.2305 13.9048 21.979 13.9048H20.5924C20.341 13.9048 20.1429 13.7067 20.1429 13.4552V12.0686C20.1429 11.8171 20.341 11.619 20.5924 11.619H21.979C22.2305 11.619 22.4286 11.8171 22.4286 12.0686V13.4552ZM23 10.0952H8.52381V7.68762C8.52381 7.33714 8.81333 7.04762 9.16381 7.04762H22.36C22.7105 7.04762 23 7.33714 23 7.68762V10.0952Z" 
fill="currentColor"/>
</g>
</svg>
