<svg width="32" height="24" viewBox="0 0 32 24" fill="none" xmlns="http://www.w3.org/2000/svg">
<mask id="mask0_880_4828" style="mask-type:alpha" maskUnits="userSpaceOnUse" x="0" y="0" width="32" height="24">
<rect width="32" height="24" fill="#D9D9D9"/>
</mask>
<g mask="url(#mask0_880_4828)">
<path d="M22.0857 3.47851V8.55579C22.0857 9.23701 21.515 9.79093 20.8131 9.79093C20.5436 9.79093 20.2837 9.70843 20.0651 9.55286L18.4429 8.40965L16.8206 9.55286C16.602 9.70843 16.3421 9.79093 16.0726 9.79093C15.7447 9.79093 15.4339 9.66836 15.1959 9.44915C14.9409 9.21579 14.8 8.89758 14.8 8.55579V3.47144H9.59557C8.714 3.47144 8 4.16444 8 5.02008V17.9514C8 18.807 8.714 19.5 9.59557 19.5H21.9473C22.8289 19.5 23.5429 18.807 23.5429 17.9514V5.02008C23.5429 4.20922 22.9017 3.54451 22.0857 3.47851ZM9.67571 11.6979C9.80929 11.5659 9.99629 11.4857 10.2003 11.4857H15.2711C15.6816 11.4857 16.0143 11.8086 16.0143 12.207C16.0143 12.405 15.9317 12.5841 15.7957 12.7161C15.6621 12.8458 15.4751 12.9259 15.2711 12.9259H10.2003C9.78986 12.9259 9.45714 12.603 9.45714 12.207C9.45714 12.009 9.53971 11.8275 9.67571 11.6979ZM20.1671 16.4593C20.0336 16.5913 19.8466 16.6714 19.6426 16.6714H10.2003C9.78986 16.6714 9.45714 16.3485 9.45714 15.9501C9.45714 15.7521 9.53971 15.573 9.67571 15.441C9.80929 15.3114 9.99629 15.2312 10.2003 15.2312H19.6426C20.053 15.2312 20.3857 15.5541 20.3857 15.9501C20.3857 16.1481 20.3031 16.3296 20.1671 16.4593Z" 
fill="currentColor"/>
<path d="M21.1143 3.29229V8.55578C21.1143 8.79386 20.8351 8.93057 20.6359 8.7915L18.6202 7.36778C18.5133 7.29236 18.3725 7.29236 18.2656 7.36778L16.2499 8.7915C16.0508 8.93057 15.7715 8.79386 15.7715 8.55578V3.29229C15.7715 3.132 15.9075 3 16.0726 3H20.8132C20.9783 3 21.1143 3.132 21.1143 3.29229Z" 
fill="currentColor"/>
</g>
</svg>
