<svg width="32" height="24" viewBox="0 0 32 24" fill="none" xmlns="http://www.w3.org/2000/svg">
<mask id="mask0_880_4938" style="mask-type:alpha" maskUnits="userSpaceOnUse" x="0" y="0" width="32" height="24">
<rect width="32" height="24" fill="#D9D9D9"/>
</mask>
<g mask="url(#mask0_880_4938)">
<path fill-rule="evenodd" 
clip-rule="evenodd" 
d="M24.1421 14.9092C23.1277 14.4954 22.4171 13.4359 22.4405 12.212C22.4639 11.0104 23.1861 10.0008 24.1865 9.61439C24.6843 9.41995 24.9999 8.89645 24.9999 8.33307V6.91962C24.9999 6.1568 24.4202 5.53857 23.705 5.53857H8.29489C7.57966 5.53857 7 6.1568 7 6.91962V8.3206C7 8.88897 7.31087 9.42494 7.80872 9.62935C8.82313 10.0432 9.53368 11.1026 9.51031 12.3266C9.4846 13.5157 8.77638 14.5178 7.7947 14.9142C7.30619 15.1111 7 15.6322 7 16.1881V17.619C7 18.3818 7.57966 19 8.29489 19H23.7027C24.4179 19 24.9975 18.3818 24.9975 17.619V16.1905C24.9975 15.6122 24.6493 15.1161 24.1421 14.9092ZM15.5215 11.991C15.7896 12.0086 16.0503 11.949 16.2778 11.8242C16.3416 12.091 16.4726 12.3417 16.6621 12.5473C16.3941 12.5297 16.1333 12.5893 15.9059 12.7141C15.8421 12.4473 15.711 12.1966 15.5215 11.991ZM16.5957 9.78949C16.8962 9.32744 17.6023 9.67178 17.4802 10.2208L17.2238 11.3735C17.1834 11.555 17.2428 11.7489 17.3782 11.8781L18.4295 12.8809C18.7859 13.221 18.5346 13.8224 18.0627 13.7585L16.6711 13.5701C16.4918 13.5458 16.318 13.6259 16.2187 13.7787L15.5879 14.7488C15.2875 15.2109 14.5814 14.8665 14.7035 14.3175L14.9598 13.1648C15.0002 12.9833 14.9409 12.7894 14.8055 12.6602L13.7542 11.6574C13.3977 11.3173 13.6491 10.7159 14.1209 10.7798L15.5125 10.9683C15.6918 10.9925 15.8656 10.9124 15.965 10.7596L16.5957 9.78949Z" 
fill="currentColor"/>
</g>
</svg>
