<svg width="32" height="24" viewBox="0 0 32 24" fill="none" xmlns="http://www.w3.org/2000/svg">
<mask id="mask0_880_4966" style="mask-type:alpha" maskUnits="userSpaceOnUse" x="0" y="0" width="32" height="24">
<rect width="32" height="24" fill="#D9D9D9"/>
</mask>
<g mask="url(#mask0_880_4966)">
<path fill-rule="evenodd" clip-rule="evenodd" 
d="M23.365 18H9.09849C7.93906 18 7 16.9489 7 15.6511V8.34889C7 7.05111 7.93906 6 9.09849 6H23.363C24.5225 6 25.4615 7.05111 25.4615 8.34889V15.6489C25.4635 16.9489 24.5245 18 23.365 18ZM11.8 13.9C12.7941 13.9 13.6 13.0942 13.6 12.1C13.6 11.1059 12.7941 10.3 11.8 10.3C10.8059 10.3 10 11.1059 10 12.1C10 13.0942 10.8059 13.9 11.8 13.9ZM22.7124 11.6583C22.7124 11.5479 22.6228 11.4583 22.5124 11.4583H21.6502C21.5397 11.4583 21.4502 11.3688 21.4502 11.2583V10.4C21.4502 10.2895 21.3606 10.2 21.2501 10.2H20.1624C20.0519 10.2 19.9624 10.2895 19.9624 10.4V11.2583C19.9624 11.3688 19.8729 11.4583 19.7624 11.4583H18.9002C18.7897 11.4583 18.7002 11.5479 18.7002 11.6583V12.7394C18.7002 12.8499 18.7897 12.9394 18.9002 12.9394H19.7624C19.8729 12.9394 19.9624 13.029 19.9624 13.1394V14C19.9624 14.1104 20.0519 14.2 20.1624 14.2H21.2501C21.3606 14.2 21.4502 14.1104 21.4502 14V13.1394C21.4502 13.029 21.5397 12.9394 21.6502 12.9394H22.5124C22.6228 12.9394 22.7124 12.8499 22.7124 12.7394V11.6583Z" 
fill="currentColor"/>
</g>
</svg>
