<svg width="32" height="24" viewBox="0 0 32 24" fill="none" xmlns="http://www.w3.org/2000/svg">
<mask id="mask0_880_4951" style="mask-type:alpha" maskUnits="userSpaceOnUse" x="0" y="0" width="32" height="24">
<rect width="32" height="24" fill="#D9D9D9"/>
</mask>
<g mask="url(#mask0_880_4951)">
</g>
<g clip-path="url(#clip0_880_4951)">
<mask id="path-2-inside-1_880_4951" fill="white">
<path fill-rule="evenodd" clip-rule="evenodd" d="M21.554 20.1931H9.52361C8.01019 20.1931 6.80691 18.9436 6.89086 17.458L7.29662 10.2615C7.3759 8.88822 8.53021 7.81299 9.92937 7.81299H21.1483C22.5475 7.81299 23.7041 8.88822 23.781 10.2615L24.1868 17.458C24.2708 18.9436 23.0698 20.1931 21.554 20.1931ZM12.0195 13.1381C12.7099 13.1381 13.2695 12.5784 13.2695 11.8881C13.2695 11.1977 12.7099 10.6381 12.0195 10.6381C11.3292 10.6381 10.7695 11.1977 10.7695 11.8881C10.7695 12.5784 11.3292 13.1381 12.0195 13.1381ZM20.2695 11.8881C20.2695 12.5784 19.7099 13.1381 19.0195 13.1381C18.3292 13.1381 17.7695 12.5784 17.7695 11.8881C17.7695 11.1977 18.3292 10.6381 19.0195 10.6381C19.7099 10.6381 20.2695 11.1977 20.2695 11.8881Z"/>
</mask>
<path fill-rule="evenodd" clip-rule="evenodd" d="M21.554 20.1931H9.52361C8.01019 20.1931 6.80691 18.9436 6.89086 17.458L7.29662 10.2615C7.3759 8.88822 8.53021 7.81299 9.92937 7.81299H21.1483C22.5475 7.81299 23.7041 8.88822 23.781 10.2615L24.1868 17.458C24.2708 18.9436 23.0698 20.1931 21.554 20.1931ZM12.0195 13.1381C12.7099 13.1381 13.2695 12.5784 13.2695 11.8881C13.2695 11.1977 12.7099 10.6381 12.0195 10.6381C11.3292 10.6381 10.7695 11.1977 10.7695 11.8881C10.7695 12.5784 11.3292 13.1381 12.0195 13.1381ZM20.2695 11.8881C20.2695 12.5784 19.7099 13.1381 19.0195 13.1381C18.3292 13.1381 17.7695 12.5784 17.7695 11.8881C17.7695 11.1977 18.3292 10.6381 19.0195 10.6381C19.7099 10.6381 20.2695 11.1977 20.2695 11.8881Z" 
fill="currentColor"/>
<path d="M6.89086 17.458L7.88927 17.5144L7.88927 17.5143L6.89086 17.458ZM7.29662 10.2615L6.29828 10.2039L6.2982 10.2052L7.29662 10.2615ZM23.781 10.2615L22.7826 10.3174L22.7826 10.3178L23.781 10.2615ZM24.1868 17.458L23.1884 17.5143L23.1884 17.5144L24.1868 17.458ZM9.52361 21.1931H21.554V19.1931H9.52361V21.1931ZM5.89245 17.4016C5.77509 19.4786 7.45373 21.1931 9.52361 21.1931V19.1931C8.56664 19.1931 7.83873 18.4087 7.88927 17.5144L5.89245 17.4016ZM6.2982 10.2052L5.89245 17.4017L7.88927 17.5143L8.29503 10.3178L6.2982 10.2052ZM9.92937 6.81299C8.0135 6.81299 6.40886 8.2885 6.29828 10.2039L8.29495 10.3191C8.34294 9.48794 9.04691 8.81299 9.92937 8.81299V6.81299ZM21.1483 6.81299H9.92937V8.81299H21.1483V6.81299ZM24.7795 10.2055C24.672 8.28738 23.0627 6.81299 21.1483 6.81299V8.81299C22.0322 8.81299 22.7362 9.48906 22.7826 10.3174L24.7795 10.2055ZM25.1852 17.4017L24.7795 10.2052L22.7826 10.3178L23.1884 17.5143L25.1852 17.4017ZM21.554 21.1931C23.6269 21.1931 25.3025 19.478 25.1852 17.4016L23.1884 17.5144C23.239 18.4092 22.5128 19.1931 21.554 19.1931V21.1931ZM12.2695 11.8881C12.2695 12.0261 12.1576 12.1381 12.0195 12.1381V14.1381C13.2622 14.1381 14.2695 13.1307 14.2695 11.8881H12.2695ZM12.0195 11.6381C12.1576 11.6381 12.2695 11.75 12.2695 11.8881H14.2695C14.2695 10.6454 13.2622 9.63806 12.0195 9.63806V11.6381ZM11.7695 11.8881C11.7695 11.75 11.8815 11.6381 12.0195 11.6381V9.63806C10.7769 9.63806 9.76953 10.6454 9.76953 11.8881H11.7695ZM12.0195 12.1381C11.8815 12.1381 11.7695 12.0261 11.7695 11.8881H9.76953C9.76953 13.1307 10.7769 14.1381 12.0195 14.1381V12.1381ZM19.0195 14.1381C20.2622 14.1381 21.2695 13.1307 21.2695 11.8881H19.2695C19.2695 12.0261 19.1576 12.1381 19.0195 12.1381V14.1381ZM16.7695 11.8881C16.7695 13.1307 17.7769 14.1381 19.0195 14.1381V12.1381C18.8815 12.1381 18.7695 12.0261 18.7695 11.8881H16.7695ZM19.0195 9.63806C17.7769 9.63806 16.7695 10.6454 16.7695 11.8881H18.7695C18.7695 11.75 18.8815 11.6381 19.0195 11.6381V9.63806ZM21.2695 11.8881C21.2695 10.6454 20.2622 9.63806 19.0195 9.63806V11.6381C19.1576 11.6381 19.2695 11.75 19.2695 11.8881H21.2695Z" 
fill="currentColor" mask="url(#path-2-inside-1_880_4951)"/>
<path d="M18.0718 6.53886V7.98758H13.0088V6.53886C13.0088 5.1769 14.1341 4.05847 15.5403 4.05847C16.2419 4.05847 16.8751 4.33852 17.3328 4.7885L17.3336 4.78925C17.7921 5.23812 18.0718 5.85611 18.0718 6.53886Z" 
stroke="currentColor" stroke-miterlimit="10"/>
</g>
<defs>
<clipPath id="clip0_880_4951">
<rect width="17.5385" height="17.5385" fill="white" transform="translate(6.76953 2.76929)"/>
</clipPath>
</defs>
</svg>
