<svg width="32" height="24" viewBox="0 0 32 24" fill="none" xmlns="http://www.w3.org/2000/svg">
<mask id="mask0_880_4841" style="mask-type:alpha" maskUnits="userSpaceOnUse" x="0" y="0" width="32" height="24">
<rect width="32" height="24" fill="#D9D9D9"/>
</mask>
<g mask="url(#mask0_880_4841)">
<mask id="mask1_880_4841" style="mask-type:alpha" maskUnits="userSpaceOnUse" x="0" y="0" width="32" height="24">
<rect width="32" height="24" fill="#D9D9D9"/>
</mask>
<g mask="url(#mask1_880_4841)">
<path d="M19.609 19.6922H13.1673C12.7538 19.6922 12.4743 19.2584 12.6425 18.873L13.1423 17.7307C13.2332 17.5207 13.44 17.3845 13.6672 17.3845H18.9865C19.1955 17.3845 19.3864 17.4999 19.4886 17.6845L20.1112 18.8268C20.3225 19.2168 20.0453 19.6922 19.609 19.6922Z" 
fill="currentColor" stroke="currentColor" stroke-miterlimit="10"/>
<path d="M23.7689 6.42316V8.9616C23.7689 9.40699 23.4122 9.76929 22.9737 9.76929C22.8055 9.76929 22.6487 9.71621 22.5215 9.62391C22.5238 9.59622 22.5238 9.56622 22.5238 9.53852V5.75855C22.651 5.66855 22.8078 5.61548 22.9737 5.61548C23.1918 5.61548 23.3917 5.70548 23.5349 5.85317C23.6803 5.99855 23.7689 6.20163 23.7689 6.42316Z" 
stroke="currentColor" stroke-width="0.8" stroke-miterlimit="10"/>
<path d="M10.2565 9.61698C10.127 9.71391 9.96569 9.76929 9.79527 9.76929C9.35674 9.76929 9 9.40699 9 8.9616V6.42316C9 5.97778 9.35674 5.61548 9.79527 5.61548C9.96569 5.61548 10.1247 5.67086 10.2543 5.76548V9.53852C10.2543 9.56391 10.2543 9.5916 10.2565 9.61698Z" 
stroke="currentColor" stroke-width="0.8" stroke-miterlimit="10"/>
<path fill-rule="evenodd" clip-rule="evenodd" d="M22.5238 9.53842V5.4146C22.5238 4.63461 21.899 4 21.1287 4H11.6468C10.8765 4 10.2539 4.63461 10.2539 5.4146V9.53842C10.2539 9.5638 10.2539 9.59149 10.2562 9.61688C10.2744 11.3084 10.956 12.8315 12.0489 13.9438C12.9306 14.8391 14.0803 15.4645 15.3664 15.6814V17.3845H17.4113V15.6814C20.2857 15.1922 22.4829 12.6722 22.5215 9.6238C22.5238 9.59611 22.5238 9.56611 22.5238 9.53842ZM16.8603 7.94414C16.7117 7.48142 16.057 7.48142 15.9083 7.94414L15.8224 8.21131C15.756 8.41812 15.5636 8.55836 15.3464 8.55836H15.0569C14.5738 8.55836 14.3716 9.17532 14.7608 9.4613L15.0046 9.64043C15.1779 9.76774 15.2504 9.9916 15.1846 10.1963L15.0938 10.4791C14.9454 10.9407 15.4751 11.3221 15.8658 11.035L16.0883 10.8716C16.2644 10.7422 16.5042 10.7422 16.6804 10.8716L16.9028 11.035C17.2936 11.3221 17.8232 10.9407 17.6749 10.4791L17.584 10.1963C17.5182 9.9916 17.5907 9.76774 17.764 9.64043L18.0078 9.4613C18.3971 9.17532 18.1948 8.55836 17.7118 8.55836H17.4222C17.205 8.55836 17.0126 8.41812 16.9462 8.21131L16.8603 7.94414Z" 
fill="currentColor"/>
</g>
</g>
</svg>
