<svg width="263" height="105" viewBox="0 0 263 105" fill="none" xmlns="http://www.w3.org/2000/svg">
<path d="M51.3042 2L27.5417 50.5003H3.36329L27.1258 2H51.3042Z" stroke="currentColor" stroke-width="4"/>
<path d="M54.2182 54.5L30.4557 103H6.27735L30.0399 54.5H54.2182Z" stroke="currentColor" stroke-width="4"/>
<path d="M114.31 2L90.5341 50.5003H66.3563L90.132 2H114.31Z" stroke="currentColor" stroke-width="4"/>
<path d="M117.203 54.5L93.4401 103H69.2617L93.0243 54.5H117.203Z" stroke="currentColor" stroke-width="4"/>
<path d="M177.289 2L153.526 50.5003H129.348L153.11 2H177.289Z" stroke="currentColor" stroke-width="4"/>
<path d="M180.193 54.5L156.417 103H132.239L156.015 54.5H180.193Z" stroke="currentColor" stroke-width="4"/>
<path d="M208.618 102.989H206.618V103.004H175.958L185.547 80.3839H208.618C224.638 80.3839 237.938 68.2908 237.938 53.1144C237.938 37.938 224.638 25.8448 208.618 25.8448H187.572L198.435 3.21094H208.618C237.393 3.21094 260.659 25.671 260.659 53.1002C260.659 80.5294 237.393 102.989 208.618 102.989Z"
stroke="currentColor" stroke-width="4"/>
</svg>
