<svg width="30" height="36" viewBox="0 0 30 36" fill="none" xmlns="http://www.w3.org/2000/svg">
<g id="simsports-logo">
<mask id="mask0_1124_6536" style="mask-type:alpha" maskUnits="userSpaceOnUse" x="0" y="0" width="30" height="36">
<rect id="Rectangle 598" width="30" height="36" fill="#D9D9D9"/>
</mask>
<g mask="url(#mask0_1124_6536)">
<g id="Group">
<path id="Vector" d="M14.9993 8.84103L23.5834 17.4319L27 14.0107L14.9993 2L3 14.0107L6.41657 17.4319L14.9993 8.84103Z" 
fill="currentColor"/>
<path id="Vector_2" d="M11.7565 14.438L8.96973 17.2287L10.7473 17.4473L14.7839 21.4878C15.5621 22.2667 16.8218 22.2667 17.6 21.4878L20.4246 18.6606L18.6106 18.4784L14.5726 14.438C13.7958 13.659 12.5347 13.659 11.7565 14.438Z" 
fill="currentColor"/>
<path id="Vector_3" d="M14.9993 26.795L6.41657 18.2041L3 21.6239L14.9993 33.6346L27 21.6239L23.5834 18.2041L14.9993 26.795Z" 
  fill="currentColor"/>
</g>
</g>
</g>
</svg>
