<svg width="100%" height="100%" viewBox="0 0 188.01 228.99" fill="none" xmlns="http://www.w3.org/2000/svg">
  <g id="custom-icon">
    <path d="M96.75,167.36h-27.28c-2.09,0-3.87,.73-5.33,2.19-1.47,1.46-2.19,3.24-2.19,5.32v46.61c0,2.09-.73,3.86-2.18,5.32-1.45,1.46-3.22,2.19-5.29,2.19H7.47c-2.08,0-3.84-.73-5.29-2.19-1.45-1.46-2.17-3.23-2.17-5.32V7.51C0,5.43,.73,3.65,2.19,2.19,3.65,.73,5.42,0,7.51,0H103.23c11.68,0,22.68,2.19,33,6.57s19.29,10.43,26.9,18.14c7.61,7.72,13.66,16.69,18.14,26.9,4.48,10.22,6.73,21.17,6.73,32.85s-1.88,22.58-5.65,32.69c-3.76,10.12-9.46,18.88-17.09,26.28-7.63,7.41-17.14,13.25-28.54,17.52-11.4,4.28-24.72,6.41-39.98,6.41Z"
      fill="#ffffff"/>
    <path d="M60.28,42.67V120.8c0,4.65,5,7.59,9.06,5.32l70.04-39.06c4.17-2.32,4.17-8.32,0-10.65L69.34,37.35c-4.06-2.27-9.06,.67-9.06,5.32Z"
      fill="#2a4cff"/>
  </g>
</svg>
