<svg width="28" height="28" viewBox="0 0 28 28" fill="none" xmlns="http://www.w3.org/2000/svg">
<g id="icon_twitter">
<rect width="28" height="28" rx="4" fill="white" fill-opacity="0.2"/>
<g id="icon_twitter_2">
<path id="Vector" d="M20.7116 7.75288C20.7062 7.74267 20.6973 7.73467 20.6865 7.73031C19.4356 7.16644 18.1155 6.76436 16.7593 6.53413C16.747 6.53188 16.7342 6.5335 16.7229 6.53877C16.7116 6.54403 16.7022 6.55268 16.6962 6.56346C16.5164 6.88399 16.3533 7.21323 16.2073 7.54991C14.7454 7.33189 13.2583 7.33189 11.7964 7.54991C11.6495 7.21237 11.4837 6.88305 11.2998 6.56346C11.2935 6.55291 11.2841 6.54447 11.2729 6.53924C11.2616 6.534 11.249 6.53222 11.2367 6.53413C9.88034 6.76388 8.56018 7.16599 7.30943 7.73034C7.29872 7.7348 7.28968 7.74242 7.28357 7.75214C4.7823 11.4219 4.09711 15.0015 4.43325 18.5367C4.43419 18.5454 4.4369 18.5538 4.44121 18.5614C4.44552 18.569 4.45135 18.5757 4.45835 18.581C5.91481 19.6405 7.54388 20.4492 9.27604 20.9727C9.28824 20.9762 9.30127 20.9761 9.31337 20.9722C9.32547 20.9683 9.33607 20.9609 9.34373 20.9509C9.71576 20.4535 10.0454 19.9269 10.3293 19.3763C10.3332 19.3688 10.3355 19.3605 10.3359 19.352C10.3363 19.3436 10.3348 19.3351 10.3317 19.3273C10.3285 19.3194 10.3237 19.3122 10.3175 19.3063C10.3114 19.3004 10.304 19.2958 10.2959 19.2929C9.77606 19.0975 9.2728 18.8619 8.79084 18.5884C8.78209 18.5834 8.77474 18.5763 8.76943 18.5678C8.76413 18.5593 8.76105 18.5496 8.76045 18.5396C8.75985 18.5297 8.76175 18.5197 8.76599 18.5107C8.77024 18.5016 8.77669 18.4937 8.78477 18.4877C8.88619 18.4132 8.98585 18.3365 9.08366 18.2576C9.09224 18.2507 9.10262 18.2462 9.11364 18.2447C9.12465 18.2433 9.13586 18.2449 9.14601 18.2493C12.3035 19.6651 15.722 19.6651 18.8421 18.2493C18.8523 18.2446 18.8636 18.2428 18.8748 18.2441C18.8859 18.2454 18.8965 18.2499 18.9052 18.2569C19.0032 18.3362 19.1031 18.4132 19.2049 18.4877C19.213 18.4936 19.2195 18.5015 19.2238 18.5105C19.2281 18.5196 19.2301 18.5295 19.2296 18.5395C19.2291 18.5494 19.226 18.5591 19.2208 18.5676C19.2156 18.5762 19.2083 18.5833 19.1996 18.5884C18.7187 18.8642 18.215 19.0997 17.6938 19.2922C17.6857 19.2952 17.6783 19.2999 17.6722 19.3059C17.6661 19.3119 17.6613 19.3191 17.6582 19.327C17.6551 19.335 17.6538 19.3435 17.6542 19.352C17.6547 19.3605 17.657 19.3688 17.661 19.3763C17.9496 19.9238 18.2788 20.4498 18.6458 20.95C18.6533 20.9602 18.6638 20.968 18.676 20.972C18.6881 20.976 18.7012 20.9762 18.7135 20.9726C20.4488 20.4509 22.0807 19.6421 23.539 18.581C23.5461 18.5759 23.552 18.5694 23.5563 18.5619C23.5607 18.5544 23.5633 18.546 23.5641 18.5374C23.9665 14.4504 22.8904 10.9001 20.7116 7.75288ZM10.8009 16.3841C9.85023 16.3841 9.06693 15.527 9.06693 14.4744C9.06693 13.4218 9.83504 12.5647 10.8009 12.5647C11.7743 12.5647 12.55 13.4293 12.5348 14.4744C12.5348 15.527 11.7666 16.3841 10.8009 16.3841ZM17.2118 16.3841C16.2612 16.3841 15.4779 15.527 15.4779 14.4744C15.4779 13.4218 16.246 12.5647 17.2118 12.5647C18.1852 12.5647 18.9609 13.4293 18.9457 14.4744C18.9457 15.527 18.1852 16.3841 17.2118 16.3841Z" fill="white"/>
</g>
</g>
</svg>
