<svg width="28" height="28" viewBox="0 0 28 28" fill="none" xmlns="http://www.w3.org/2000/svg">
<g id="icon_twitter">
<rect width="28" height="28" rx="4" fill="white" fill-opacity="0.2"/>
<g id="icon_twitter_2">
<path id="Vector" d="M8.38917 9.48571C8.88174 9.75442 9.42446 9.98541 10.0043 10.1759C9.70756 11.2823 9.53811 12.5022 9.51051 13.7688H5.8335C5.90647 12.0291 6.5167 10.3547 7.58026 8.976C7.83845 9.16342 8.10867 9.33369 8.38917 9.48571ZM13.9237 14.5055H10.2469C10.274 15.7018 10.433 16.8522 10.7103 17.891C11.7084 17.6308 12.7968 17.4815 13.9237 17.4548V14.5055ZM8.38917 18.7891C8.88174 18.5204 9.42446 18.2894 10.0043 18.0989C9.70756 16.9925 9.53811 15.7726 9.51051 14.506H5.8335C5.90637 16.2458 6.51662 17.9204 7.58026 19.2992C7.83844 19.1117 8.10866 18.9412 8.38917 18.7891ZM14.6599 6.07362V10.0836C15.7152 10.0575 16.7314 9.91903 17.6615 9.67896C17.5061 9.21234 17.3147 8.75852 17.089 8.32158C16.4127 7.02482 15.5613 6.24168 14.6599 6.07362ZM13.9237 13.7693V10.82C12.7964 10.7933 11.7084 10.644 10.7103 10.3838C10.433 11.4226 10.274 12.5729 10.2469 13.7693H13.9237ZM17.8734 10.3838C16.8752 10.644 15.7873 10.7933 14.6599 10.82V13.7693H18.3367C18.3097 12.5729 18.1507 11.4226 17.8734 10.3838ZM13.9237 22.2012V18.1911C12.8684 18.2172 11.8522 18.3557 10.9222 18.5958C11.0775 19.0626 11.2689 19.5167 11.4947 19.9538C12.171 21.25 13.0223 22.0331 13.9237 22.2012ZM11.4947 8.321C11.2689 8.75813 11.0775 9.21215 10.9222 9.67896C11.8522 9.91903 12.8684 10.0575 13.9237 10.0836V6.07362C13.0223 6.24168 12.171 7.02482 11.4947 8.321ZM20.1945 9.48571C19.7019 9.75442 19.1592 9.98541 18.5793 10.1759C18.8761 11.2823 19.0455 12.5022 19.0732 13.7688H22.7502C22.6773 12.0289 22.067 10.3544 21.0034 8.97554C20.7452 9.16312 20.475 9.33354 20.1945 9.48571ZM8.74175 8.83946C9.19037 9.08436 9.68559 9.29567 10.2159 9.47144C10.3935 8.93884 10.6029 8.43903 10.842 7.98051C11.2711 7.15803 11.7753 6.50867 12.3406 6.05061C12.4374 5.972 12.5354 5.89957 12.6344 5.83331C10.8384 6.18991 9.24708 7.1142 8.05535 8.41165C8.2753 8.56798 8.50452 8.71085 8.74175 8.83946ZM12.3406 22.2242C11.7753 21.7659 11.2708 21.1165 10.842 20.294C10.6029 19.8356 10.3934 19.3357 10.2159 18.8031C9.68559 18.9789 9.19072 19.1902 8.74175 19.4351C8.50452 19.5637 8.2753 19.7066 8.05535 19.8629C9.24708 21.1603 10.8384 22.0848 12.6344 22.4412C12.5354 22.3751 12.4374 22.3028 12.3406 22.2242ZM19.8419 19.4351C19.3933 19.1902 18.8986 18.9789 18.3678 18.8031C18.1902 19.3357 17.9808 19.8356 17.7417 20.294C17.3126 21.1165 16.8084 21.7665 16.243 22.2242C16.1462 22.3026 16.0482 22.375 15.9492 22.4412C17.7452 22.0846 19.3366 21.1603 20.5283 19.8629C20.3084 19.7066 20.0791 19.5639 19.8419 19.4353V19.4351ZM17.089 19.9535C17.3147 19.5164 17.5061 19.0624 17.6615 18.5956C16.7314 18.3555 15.7152 18.217 14.6599 18.1909V22.2012C15.5613 22.0331 16.4127 21.25 17.089 19.9538V19.9535ZM14.6599 14.5055V17.4548C15.7873 17.4815 16.8752 17.6308 17.8734 17.891C18.1507 16.8517 18.3097 15.7024 18.3367 14.5055H14.6599ZM16.243 6.05061C16.8084 6.5089 17.3128 7.15826 17.7417 7.98074C17.9808 8.43926 18.1903 8.93907 18.3678 9.47167C18.8981 9.2959 19.3929 9.08459 19.8419 8.83969C20.0791 8.71108 20.3084 8.56821 20.5283 8.41188C19.3366 7.1142 17.7452 6.1898 15.9492 5.83331C16.0483 5.89957 16.1462 5.972 16.243 6.05061ZM21.0034 19.299C22.0671 17.9201 22.6773 16.2455 22.7502 14.5055H19.0732C19.0455 15.7721 18.8761 16.992 18.5793 18.0984C19.1597 18.2894 19.7019 18.5204 20.1945 18.7886C20.475 18.9408 20.7452 19.1112 21.0034 19.2988V19.299Z" fill="white"/>
</g>
</g>
</svg>
